<svg width="27" height="25" viewBox="0 0 27 25" fill="none" xmlns="http://www.w3.org/2000/svg">
<path d="M3.1931 9.78558C2.98855 9.9816 2.98003 10.0413 2.98003 11.0469C2.98003 12.1719 3.15048 13.6634 3.37207 14.4304C3.63627 15.3253 4.18172 16.6037 4.64195 17.3793C5.19592 18.3168 5.58796 18.8196 6.33796 19.5696C6.64477 19.8764 6.90045 20.1491 6.90045 20.1662C6.90045 20.1832 5.46865 20.1747 3.71298 20.1577L0.516979 20.115L0.2613 20.3792C-0.164833 20.7969 -0.105175 20.9929 0.704478 21.8196C1.58231 22.7315 2.19594 23.2002 3.09082 23.6775C4.01127 24.1633 4.75274 24.3849 5.86069 24.4872C7.11352 24.6065 18.8492 24.598 19.9231 24.4786C21.8066 24.2741 23.1276 23.6008 24.7043 22.0582C25.5566 21.223 25.6759 21.0696 25.6759 20.8224C25.6759 20.6179 25.6077 20.4815 25.4287 20.3281L25.1816 20.115L22.2242 20.1662C20.3492 20.2003 19.2583 20.1917 19.2583 20.1406C19.2583 20.098 19.3606 20.0383 19.4969 20.0042C21.7043 19.5014 23.5196 18.8111 24.8407 17.9673C25.9656 17.2429 26.7923 16.1094 26.8946 15.1378C27.0992 13.2373 25.8719 12.1208 23.5963 12.1208H22.6929L22.7356 11.243C22.7782 10.2458 22.7356 9.9816 22.4969 9.74296C22.3265 9.57251 22.1731 9.57251 12.8663 9.57251H3.39764L3.1931 9.78558ZM21.3038 11.7799C21.3038 13.5611 20.7242 15.3764 19.6333 17.0384C19.0367 17.9418 17.7242 19.3054 16.9657 19.7912L16.4203 20.1406H12.7726H9.12487L8.45158 19.6293C6.81523 18.3935 5.43456 16.4588 4.85501 14.5668C4.60786 13.7827 4.44593 12.8026 4.40331 11.8054L4.3607 10.9361H12.8322H21.3038V11.7799ZM24.9259 13.7145C25.548 14.0299 25.7355 14.7628 25.3861 15.4958C25.173 15.9389 24.4316 16.6548 23.7498 17.0639C23.1361 17.4219 20.8521 18.3509 20.5708 18.3509H20.3492L20.6475 17.9418C21.3719 16.9446 21.9259 15.7429 22.2839 14.4219C22.3947 13.9872 22.5395 13.6037 22.5992 13.5611C22.6589 13.5185 23.1361 13.5015 23.6475 13.51C24.3975 13.527 24.6532 13.5696 24.9259 13.7145ZM23.264 21.5895C23.264 21.6917 22.4117 22.2713 21.8322 22.561C21.5765 22.6889 21.0822 22.8764 20.7242 22.9787C20.085 23.1491 19.8975 23.1576 13.2925 23.1917C8.25556 23.2173 6.32943 23.2002 5.79251 23.1235C4.99138 23.0042 4.07945 22.7059 3.49139 22.3735C3.03969 22.1179 2.46867 21.6832 2.46867 21.6065C2.46867 21.5724 7.14761 21.5383 12.8663 21.5298C19.0879 21.5213 23.264 21.5469 23.264 21.5895Z" fill="#04BF55"/>
<path d="M7.17302 8C6.05424 4.81818 10.8703 3.62449 7.17302 1M12.7639 8C15.5587 4.81818 10.5269 3.86364 12.7639 1M18.3547 1C20.5905 3.86364 16.1178 5.45455 18.3547 8" stroke="#04BF55"/>
</svg>
