<svg width="28" height="26" viewBox="0 0 28 26" fill="none" xmlns="http://www.w3.org/2000/svg">
<path d="M9.51225 19.0004C10.1333 20.7551 11.2829 22.2742 12.8029 23.3486C14.3229 24.4231 16.1386 25 18 25H26.25C26.4489 25 26.6397 24.921 26.7803 24.7803C26.921 24.6397 27 24.4489 27 24.25V16C27 13.6981 26.118 11.4838 24.5355 9.81228C22.953 8.14074 20.7901 7.13906 18.4918 7.0132M10 19H1.75C1.55109 19 1.36032 18.921 1.21967 18.7803C1.07902 18.6397 1 18.4489 1 18.25V9.99997C1 7.61303 1.94821 5.32385 3.63604 3.63603C5.32386 1.94821 7.61304 1 9.99998 1C12.3869 1 14.6761 1.94821 16.364 3.63604C18.0518 5.32387 19 7.61305 19 10C19 12.3869 18.0518 14.6761 16.364 16.364C14.6761 18.0518 12.387 19 10 19Z" stroke="#04BF55" stroke-width="2" stroke-linecap="round" stroke-linejoin="round"/>
</svg>
