<svg width="136" height="184" viewBox="0 0 136 184" fill="none" xmlns="http://www.w3.org/2000/svg">
<path d="M83.0061 145.904C83.088 146.09 83.1517 146.627 83.2336 146.814C82.9424 146.773 82.9333 147.492 83.0061 147.838C84.6215 155.505 89.3221 168.383 89.6043 170.249C89.8545 171.901 89.7499 173.598 89.8318 175.254C89.941 177.521 90.0138 179.809 90.0593 182.08C64.3082 185.133 55.4894 184.446 29.3105 180.715C46.4021 168.929 61.7645 154.654 75.9529 139.533C77.814 140.498 79.5295 141.767 81.5272 142.491C82.2461 143.155 82.5601 144.898 83.0061 145.904Z" fill="#70A877"/>
<path d="M59.3436 132.253C63.8804 137.445 65.2911 139.711 73.3363 137.941C74.3237 138.278 75.0609 139.069 75.9528 139.534C61.7644 154.655 46.4021 168.93 29.3105 180.715C19.6362 178.335 9.30664 177.885 0.1875 173.776C0.1875 173.344 4.31022 172.22 4.73797 171.387C8.90165 176.438 13.9527 177.876 19.982 175.255C28.7098 182.012 36.3319 167.665 38.8665 160.807C44.5728 145.363 44.955 125.336 43.872 109.045C48.3679 117.195 53.2005 125.222 59.3436 132.253Z" fill="#4A7858"/>
<path d="M107.578 176.847C107.369 178.371 108.466 178.799 107.351 179.805C101.608 180.733 95.8336 181.397 90.0591 182.08C90.0136 179.809 89.9408 177.52 89.8315 175.254L100.298 174.344C102.455 176.201 104.639 177.571 107.578 176.847Z" fill="#5B8C66"/>
<path d="M133.516 141.353C133.653 142.204 134.012 143.028 134.199 143.856C134.75 146.341 134.618 148.88 135.109 151.364C134.322 153.49 134.809 160.811 131.241 165.13C130.891 165.557 129.972 166.613 129.648 165.926C130.022 164.934 130.854 161.171 131.014 160.01C131.792 154.318 131.337 148.302 130.103 142.719C131.118 142.327 132.192 141.435 133.175 140.898C133.275 140.844 133.271 141.472 133.516 141.353Z" fill="#ACD5B8"/>
<path d="M107.351 179.805C108.466 178.799 107.369 178.371 107.579 176.847C108.593 176.597 109.704 175.991 109.854 174.799C116.138 178.135 121.458 177.752 126.008 172.069C128.365 173.125 132.488 173.73 131.355 174.572C123.605 177.279 115.433 178.499 107.351 179.805Z" fill="#4A7858"/>
<path d="M34.9983 91.2983C39.4669 102.643 50.7384 106.024 61.6186 108.476C61.3501 111.416 61.0634 114.501 61.8461 117.35C56.0988 119.397 58.5333 127.488 59.3433 132.253C53.2002 125.222 48.3676 117.195 43.8717 109.045L43.5304 108.59C41.278 109.113 42.1744 107.539 38.8662 107.453C37.7878 107.425 35.4215 107.562 34.3157 107.68C33.0189 106.661 29.515 104.304 28.1726 104.04C27.7176 103.949 27.3399 103.489 26.0111 104.267C24.737 105.013 17.5382 118.779 17.024 120.763C15.859 125.249 15.768 131.802 18.8442 135.552C13.6794 135.766 8.44633 135.902 3.37256 134.755C5.77521 128.803 9.75687 119.225 12.4735 113.709C22.5937 93.164 23.9816 97.5052 34.9983 91.2983Z" fill="#70A877"/>
<path d="M108.716 95.1663C109.972 95.8625 112.743 97.2277 113.608 97.8966C120.784 103.462 128.961 133.035 130.331 134.528C130.476 134.933 129.785 135.142 129.534 135.21C123.546 136.867 117.162 137.313 110.991 137.713C109.517 136.152 107.856 134.81 106.441 133.163C108.721 126.141 110.345 118.952 111.446 111.662C111.105 110.806 95.6653 111.716 93.6995 111.776C93.6904 110.319 93.8816 108.904 93.9271 107.453C99.3148 104.267 101.986 98.2925 102.345 92.2085C104.329 93.2779 106.85 94.1333 108.716 95.1663Z" fill="#4A7858"/>
<path d="M28.173 104.04C27.5905 105.432 28.1912 107.198 27.9455 108.59C27.8727 109.009 27.3949 109.378 27.2629 109.728C27.1582 110.005 27.0672 110.342 27.0354 110.41C24.9331 115.084 15.2269 125.75 22.2574 136.007C18.6807 138.874 15.7229 142.491 12.2464 145.449C9.45237 144.898 6.77669 143.975 4.05551 143.174C1.83034 140.685 -0.185522 143.82 1.78028 137.827C2.12612 136.771 2.97705 135.734 3.37294 134.755C8.44672 135.902 13.6798 135.766 18.8445 135.552C15.7684 131.802 15.8594 125.25 17.0243 120.763C17.5386 118.779 24.7374 105.014 26.0115 104.267C27.3403 103.489 27.718 103.949 28.173 104.04Z" fill="#CCE4D0"/>
<path d="M102.345 92.2089C101.986 98.2929 99.3148 104.268 93.9271 107.453C94.1591 100.286 96.8758 87.2898 85.9637 97.2144C83.0651 97.1416 80.0299 97.4874 77.0903 97.4419C78.2917 96.4363 84.9581 88.2045 84.8261 87.5447C84.6942 86.8848 84.2346 87.349 83.916 87.2034L85.85 83.7905C91.7519 85.8428 96.9213 89.2875 102.345 92.2089Z" fill="#8EC29C"/>
<path d="M118.044 95.3938C120.67 97.7054 122.636 100.927 124.187 104.04C124.242 104.149 124.665 105.364 125.098 106.315C127.382 111.334 129.266 116.786 131.013 122.014C131.059 122.146 130.936 122.146 131.696 124.517C132.483 126.979 133.921 130.164 134.426 132.253C133.784 133.745 131.855 136.189 130.331 134.528C128.961 133.035 120.784 103.462 113.608 97.8966C112.743 97.2276 109.972 95.8625 108.716 95.1663C111.819 94.734 115.014 94.7795 118.044 95.3938Z" fill="#ACD5B8"/>
<path d="M109.854 174.8C109.703 175.992 108.593 176.597 107.578 176.847C104.639 177.571 102.455 176.201 100.298 174.345C100.088 174.167 99.4558 173.507 99.16 173.207C93.7814 167.765 86.4688 154.036 83.2334 146.814C83.1515 146.628 83.0878 146.091 83.0059 145.904C84.5075 145.613 87.3243 146.459 88.2389 145.449C94.3092 154.063 100.188 169.667 109.854 174.8Z" fill="#ACD5B8"/>
<path d="M99.1601 173.207C96.1841 173.689 92.6529 170.727 89.6041 170.249C89.322 168.383 84.6214 155.506 83.0059 147.838C82.9331 147.492 82.9422 146.773 83.2335 146.814C86.4689 154.036 93.7815 167.765 99.1601 173.207Z" fill="#4A7858"/>
<path d="M99.16 173.207C99.4558 173.507 100.088 174.167 100.298 174.344L89.8315 175.255C89.7496 173.598 89.8543 171.901 89.604 170.249C92.6528 170.727 96.184 173.689 99.16 173.207Z" fill="#4A7858"/>
<path d="M133.516 141.353C133.27 141.472 133.275 140.844 133.175 140.898C132.192 141.435 131.118 142.327 130.103 142.719C128.793 143.224 125.371 144.22 123.96 144.539C122.69 144.825 119.742 145.18 118.044 145.449C115.478 143.078 113.371 140.239 110.991 137.713C117.162 137.313 123.546 136.867 129.534 135.21C129.785 135.142 130.476 134.933 130.331 134.528C131.855 136.189 133.785 133.745 134.426 132.252C134.927 134.318 136.005 140.17 133.516 141.353Z" fill="#70A877"/>
<path d="M106.441 133.163C107.856 134.81 109.517 136.152 110.992 137.713C113.371 140.239 115.478 143.078 118.045 145.449C117.999 145.458 117.963 146.022 117.248 145.904C111.647 140.757 101.827 136.548 98.7053 129.295C96.9078 125.122 97.4175 122.788 98.7053 118.601C98.7235 118.542 98.9191 118.833 99.6154 117.805C99.3014 116.417 98.7553 114.852 99.6154 113.596C103.715 115.903 98.4914 122.01 103.028 129.181C103.82 130.432 105.44 131.998 106.441 133.163Z" fill="#ACD5B8"/>
<path d="M43.8719 109.045C44.9549 125.336 44.5727 145.363 38.8664 160.807C36.3318 167.664 28.7097 182.012 19.9819 175.255C30.4662 170.7 36.4319 151.556 38.1838 141.126C38.9301 136.689 39.4761 133.936 37.9563 129.522C38.8209 128.954 39.2577 127.734 39.7765 127.02C40.5182 125.996 43.1848 125.286 40.004 121.787C40.2543 118.446 40.6411 115.111 40.9141 111.775C40.9277 111.589 42.1746 111.038 40.2315 108.476C39.9994 108.167 39.508 107.625 39.0939 107.68C39.0666 107.516 39.0712 107.425 38.8664 107.453C42.1746 107.539 41.2781 109.113 43.5306 108.59L43.8719 109.045Z" fill="#8EC29C"/>
<path d="M49.3324 24.8618C54.6201 27.7969 49.4507 28.7934 46.0333 31.915C40.2952 37.1572 35.6173 44.4061 35.226 52.2784L34.7709 52.1646C34.6207 44.5972 34.5798 32.4702 40.914 27.1371C43.6352 25.5125 46.2927 25.2896 49.3324 24.8618Z" fill="#B18385"/>
<path d="M82.5506 43.7461C83.1786 44.0009 84.3026 44.1921 84.3708 44.3149C84.7121 44.9474 84.5574 47.027 83.4607 47.159C81.3903 47.4047 74.2551 44.8382 73.9047 42.2672C73.3905 38.5267 76.6942 41.6347 78.569 42.381C79.8613 42.8952 81.2765 43.2274 82.5506 43.7461Z" fill="#1A2125"/>
<path d="M86.6465 81.7426C84.8172 83.1851 81.8367 83.8677 83.0061 86.8619C83.1927 87.3352 83.7479 87.1258 83.9162 87.2032C84.2348 87.3488 84.6944 86.8847 84.8263 87.5445C84.9583 88.2043 78.2919 96.4361 77.0905 97.4418C74.7152 97.4054 72.4127 97.8149 70.0373 97.4418C68.8951 97.2597 66.993 94.3884 63.3254 100.172C58.3016 97.0322 53.3325 92.418 51.6079 86.7482L52.9731 85.1555C54.097 85.565 55.3165 86.193 56.3859 86.7482C55.0117 86.8164 58.9888 88.2953 60.3676 88.5683C66.6654 89.8152 72.7084 88.9096 78.4557 86.2931C79.6934 85.7289 80.8856 85.0645 82.2098 84.7004C83.1609 83.0077 85.1722 82.5663 86.5328 81.2876L86.6465 81.7426Z" fill="#734648"/>
<path d="M78.4554 86.293C72.7081 88.9095 66.6651 89.815 60.3672 88.5682C58.9885 88.2952 55.0113 86.8163 56.3856 86.748C58.2649 87.2804 60.1716 87.0802 62.0737 87.2031C67.5706 87.5625 73.0995 87.7764 78.4554 86.293Z" fill="#4F2B32"/>
<path d="M78.228 24.8619C82.6511 31.3236 82.7148 36.0743 82.551 43.7464C81.2769 43.2276 79.8617 42.8954 78.5693 42.3812C76.6945 41.635 73.3909 38.527 73.9051 42.2675C74.2555 44.8385 81.3906 47.405 83.4611 47.1592C84.494 51.9554 84.4758 66.4851 81.6409 70.0253C79.1199 73.1697 62.1376 76.1366 57.7509 74.1208C62.2195 77.3015 67.9667 77.206 72.995 75.4859C71.3887 77.3197 69.2136 78.3026 67.0794 79.3538C67.6755 82.8713 65.2365 85.8337 62.0739 87.2034C60.1718 87.0805 58.2651 87.2807 56.3858 86.7483C55.3164 86.1932 54.0969 85.5652 52.9729 85.1557C51.5259 84.6278 50.0424 84.2592 48.65 83.563C48.6136 83.5448 48.6181 83.4538 47.9674 83.1079C40.8004 79.281 36.0042 73.1151 35.6812 64.7923C35.4081 64.3873 35.126 64.5557 34.7711 64.2235L34.2023 57.3978C32.8417 57.5571 30.0568 55.4138 33.4059 57.9666V63.3134C32.6551 62.599 31.4219 61.5797 30.9032 60.6969C28.6325 56.8153 28.4368 49.8804 32.9509 48.7519C33.5151 49.8895 34.2387 50.9998 34.7711 52.1648L35.2261 52.2785C35.6175 44.4062 40.2953 37.1573 46.0335 31.9152C49.4509 28.7935 54.6202 27.797 49.3326 24.8619C57.8055 23.6743 69.7187 23.8199 78.228 24.8619Z" fill="#94635C"/>
<path d="M34.771 64.2229C34.6071 64.0681 33.9473 63.8315 33.4058 63.3128V57.966C30.0567 55.4131 32.8416 57.5564 34.2022 57.3971L34.771 64.2229Z" fill="#734648"/>
<path d="M54.4519 39.8779C56.759 46.2486 42.6344 49.0289 43.6446 44.7697C43.9358 43.5456 45.8743 44.4147 49.674 42.8357C51.3713 42.1304 52.8047 40.6925 54.4519 39.8779Z" fill="#1A2125"/>
<path d="M70.606 53.5293C73.2179 58.0707 78.1142 61.6974 82.8922 57.6247C83.8933 57.6065 82.0686 63.4175 75.6115 61.2651C72.417 60.2003 70.788 56.7146 70.606 53.5293Z" fill="#1A2125"/>
<path d="M56.4996 53.5293C58.156 61.7201 45.6604 65.5289 44.2134 56.7146C48.5909 61.6291 54.6021 59.4313 56.4996 53.5293Z" fill="#1A2125"/>
<path d="M63.78 62.4028C76.3257 65.7065 67.1747 77.8881 60.481 69.7973C60.6493 69.1148 61.8188 70.53 64.2351 69.4561C67.88 67.8361 66.4375 64.2594 63.78 62.4028Z" fill="#734648"/>
<path d="M60.8225 63.0854C63.3435 62.685 63.1341 64.9648 61.7326 65.5882C58.4244 67.058 58.2469 63.495 60.8225 63.0854Z" fill="#B18385"/>
<path d="M48.6499 83.563C47.3349 86.1795 50.9661 85.3194 51.6077 86.7483C53.3324 92.4182 58.3015 97.0323 63.3252 100.172C66.9929 94.3885 68.895 97.2599 70.0371 97.4419C64.8997 98.5203 66.0191 107.253 65.9417 111.776C65.9235 112.727 64.6903 113.045 66.1692 115.416C66.8336 116.476 68.0076 116.881 68.672 117.919C68.5446 117.887 68.3535 117.946 68.217 117.919C64.117 117.118 62.6335 118.679 64.3491 121.104C64.836 121.796 65.1636 121.796 65.7142 122.242C62.3878 122.802 62.6699 124.171 64.1215 126.565C64.6266 127.398 65.3638 128.067 65.9417 128.84C64.836 129.5 63.7393 130.487 65.0316 131.798C65.0498 131.816 65.0453 132.012 65.3729 132.253C70.9427 132.207 70.5877 132.744 74.1326 134.528C80.0891 137.527 84.3575 139.943 88.239 145.449C87.3244 146.46 84.5076 145.613 83.006 145.904C82.56 144.899 82.2461 143.156 81.5271 142.492C79.5294 141.768 77.8139 140.498 75.9528 139.534C75.0609 139.07 74.3237 138.278 73.3362 137.941C65.291 139.711 63.8804 137.445 59.3435 132.253C58.5336 127.489 56.0991 119.398 61.8463 117.35C61.0636 114.502 61.3503 111.416 61.6188 108.477C50.7386 106.024 39.4671 102.643 34.9985 91.2988L47.9674 83.1079C48.6181 83.4537 48.6135 83.5448 48.6499 83.563Z" fill="#CCE4D0"/>
<path d="M52.9729 85.1552L51.6078 86.7478C50.9661 85.319 47.3349 86.179 48.6499 83.5625C50.0424 84.2587 51.5258 84.6273 52.9729 85.1552Z" fill="#ACD5B8"/>
<path d="M100.298 47.6139C95.5288 53.7935 97.0987 50.0712 96.8848 43.4047C94.7325 29.7943 91.72 26.5134 78.2279 24.8616C69.7185 23.8195 57.8054 23.6739 49.3324 24.8616C46.2927 25.2893 43.6352 25.5123 40.9141 27.1368C41.3418 26.7773 41.2644 26.477 42.848 25.7717L47.8535 24.6341C48.0492 24.5567 47.5259 24.1608 48.0811 23.9515C58.0966 20.1609 69.7686 18.4272 78.5692 14.8505C82.2414 13.358 89.3083 9.70396 92.3344 7.11475C94.5004 8.75291 94.9236 9.30352 96.0885 11.8927C102.732 13.0622 107.123 19.7787 105.531 26.3405C107.874 32.2379 104.052 42.7495 100.298 47.6139Z" fill="#18141A"/>
<path d="M92.3343 7.11487C89.3083 9.70408 82.2414 13.3581 78.5692 14.8507C69.7686 18.4273 58.0966 20.1611 48.081 23.9516C47.5259 24.1609 48.0492 24.5568 47.8535 24.6342L42.848 25.7718C41.2644 26.4771 41.3418 26.7774 40.914 27.1369C34.5798 32.4701 34.6207 44.5971 34.7709 52.1645C34.2385 50.9996 33.515 49.8893 32.9507 48.7517C30.1567 43.0954 26.8758 32.238 30.2204 26.5681C28.3957 22.9368 29.4787 18.3181 32.7232 15.8745C31.9997 11.1602 37.624 7.61542 41.9379 8.02496C44.2905 2.45064 51.867 0.434779 56.9544 3.47449C63.6755 -1.63568 73.418 -1.11238 79.2517 5.06716C83.9979 3.63831 88.339 4.09336 92.3343 7.11487Z" fill="#1A2125"/>
<path d="M56.2717 4.1576C57.2273 4.02563 57.6914 5.52729 56.7267 5.97778C52.1899 7.36568 56.0123 4.194 56.2717 4.1576Z" fill="#374141"/>
<path d="M100.298 47.6142C112.475 49.2842 108.575 67.0447 96.2024 65.9298C95.2468 73.2515 92.2572 77.3105 86.6465 81.7427L86.5327 81.2876C85.1721 82.5663 83.1608 83.0077 82.2097 84.7005C80.8856 85.0645 79.6933 85.7289 78.4556 86.2931C73.0997 87.7766 67.5709 87.5627 62.0739 87.2032C65.2365 85.8335 67.6755 82.8712 67.0794 79.3537C69.2136 78.3025 71.3887 77.3196 72.995 75.4858C67.9668 77.2059 62.2195 77.3014 57.751 74.1206C62.1376 76.1365 79.12 73.1696 81.6409 70.0252C84.4759 66.485 84.4941 51.9553 83.4611 47.1591C84.5578 47.0272 84.7125 44.9476 84.3712 44.3151C84.303 44.1922 83.179 44.0011 82.551 43.7463C82.7148 36.0742 82.6511 31.3235 78.2281 24.8618C91.7202 26.5136 94.7326 29.7945 96.885 43.405C97.0989 50.0714 95.529 53.7937 100.298 47.6142Z" fill="#734648"/>
<path d="M96.3159 57.625C107.619 58.89 98.2271 64.792 95.9746 57.9663L96.3159 57.625Z" fill="#4F2B32"/>
<path d="M99.729 51.2545C102.951 51.2363 105.426 54.863 104.052 57.8526C103.51 54.6764 102.65 52.7789 99.729 51.2545Z" fill="#4F2B32"/>
<path d="M34.3156 107.68C32.2497 107.899 30.0518 108.554 27.945 108.591C28.1907 107.198 27.59 105.432 28.1725 104.04C29.5149 104.304 33.0188 106.661 34.3156 107.68Z" fill="#ACD5B8"/>
<path d="M106.441 133.163C105.44 131.998 103.82 130.433 103.028 129.181C98.491 122.01 103.715 115.903 99.615 113.596C97.2442 112.263 96.0884 113.591 93.8131 114.506C93.5947 114.333 93.6994 112.249 93.6994 111.776C95.6652 111.717 111.105 110.807 111.446 111.662C110.345 118.952 108.72 126.142 106.441 133.163Z" fill="#70A877"/>
<path d="M40.9143 111.775C40.6413 115.111 40.2545 118.446 40.0042 121.786C39.3717 121.09 38.9167 121.145 38.8666 121.104C38.4889 120.781 38.2705 120.144 37.729 119.966C38.093 119.434 38.1567 118.883 38.1841 118.829C38.812 117.655 39.7039 115.652 39.5492 114.506C39.44 113.7 38.6163 112.526 38.6391 111.548C39.3899 111.703 40.1408 111.848 40.9143 111.775Z" fill="#ACD5B8"/>
<path d="M36.591 111.321L36.1359 115.189C32.5229 115.121 28.7869 114.602 25.2148 115.303C28.5503 116.313 31.8812 116.618 35.2258 117.692L34.7708 120.422C31.1759 120.873 27.5628 120.768 23.9634 121.105L23.1671 126.679L23.5084 127.02C23.7268 126.929 24.0362 126.361 24.0772 126.338C28.7824 123.703 31.1941 124.691 35.9084 126.11C36.8185 129.25 31.8084 127.858 27.7176 128.954L28.4001 134.187C31.1077 133.113 34.4614 137.932 34.0882 141.809C33.4739 148.226 14.3938 163.884 8.26431 165.017C5.85711 165.463 3.49542 165.071 1.09732 164.789C1.06092 164.671 1.13373 164.457 1.09732 164.334C-0.945837 157.149 0.182679 149.29 1.89365 142.264C2.04382 142.36 2.64448 142.71 2.68999 142.719C4.41461 145.322 8.27341 145.268 10.7671 147.042C11.3131 146.537 11.6726 145.937 12.246 145.45C15.7225 142.492 18.6803 138.874 22.257 136.008C15.2265 125.751 24.9327 115.084 27.035 110.411C30.2294 110.666 33.4011 110.984 36.591 111.321Z" fill="#94635C"/>
<path d="M38.184 141.126C36.432 151.556 30.4664 170.7 19.9821 175.255C13.9527 177.876 8.90171 176.438 4.73803 171.387C3.41384 169.776 1.69832 166.755 1.09766 164.789C3.49575 165.071 5.85745 165.462 8.26464 165.016C14.3941 163.883 33.4742 148.225 34.0886 141.809L38.184 141.126Z" fill="#4F2B32"/>
<path d="M4.05508 143.174C6.77626 143.975 9.45194 144.899 12.2459 145.45C11.6726 145.936 11.3131 146.537 10.767 147.042C8.27337 145.268 4.41457 145.322 2.68994 142.719C3.17229 142.838 3.59548 143.038 4.05508 143.174Z" fill="#734648"/>
<path d="M36.5917 126.338C36.8647 127.485 37.57 128.395 37.9568 129.523C39.4767 133.937 38.9306 136.69 38.1843 141.127L34.0889 141.809C34.4621 137.932 31.1084 133.114 28.4008 134.187L27.7183 128.954C31.8091 127.858 36.8192 129.25 35.9091 126.11C36.1503 126.183 36.3687 126.27 36.5917 126.338Z" fill="#734648"/>
<path d="M38.8666 121.104C40.2135 122.351 41.8108 126.287 38.7528 125.655C37.5151 125.4 33.0147 121.082 27.3767 121.787C23.7863 122.233 26.4893 122.975 26.3528 123.721C26.321 123.898 23.9911 125.2 24.0776 126.337C24.0366 126.36 23.7272 126.929 23.5088 127.02L23.1675 126.679L23.9638 121.104C27.5632 120.768 31.1763 120.872 34.7712 120.422C35.3081 120.354 36.6505 120.276 37.1602 120.422L37.729 119.967C38.2705 120.144 38.4889 120.781 38.8666 121.104Z" fill="#734648"/>
<path d="M40.0042 121.787C43.185 125.286 40.5184 125.996 39.7767 127.02C38.6754 127.034 37.6197 126.661 36.5913 126.338C36.3684 126.269 36.1499 126.183 35.9088 126.11C31.1945 124.69 28.7827 123.703 24.0775 126.338C23.9911 125.2 26.3209 123.898 26.3528 123.721C26.4893 122.975 23.7863 122.233 27.3766 121.787C33.0147 121.082 37.5151 125.4 38.7528 125.655C41.8107 126.287 40.2135 122.351 38.8666 121.104C38.9166 121.145 39.3717 121.091 40.0042 121.787Z" fill="#4F2B32"/>
<path d="M39.5488 114.506C39.7035 115.653 38.8116 117.655 38.1837 118.829C36.4181 117.65 35.4215 117.755 35.2259 117.691C31.8813 116.617 28.5503 116.313 25.2148 115.302C28.787 114.602 32.5229 115.12 36.136 115.189C38.4021 115.234 38.8435 115.685 38.98 115.644C39.4897 115.498 38.7707 114.247 39.5488 114.506Z" fill="#4F2B32"/>
<path d="M40.9141 111.776C40.1405 111.849 39.3897 111.703 38.6389 111.548C38.6024 111.539 38.2248 111.116 38.07 111.093C37.9972 111.08 36.7459 111.339 36.5911 111.321C33.4013 110.984 30.2296 110.666 27.0352 110.411C27.067 110.343 27.158 110.006 27.2627 109.728L40.1178 109.956L40.459 109.615C40.1587 108.991 39.2077 108.345 39.0939 107.681C39.508 107.626 39.9994 108.167 40.2315 108.477C42.1746 111.039 40.9277 111.589 40.9141 111.776Z" fill="#4F2B32"/>
<path d="M38.6385 111.548C38.6157 112.527 39.4394 113.701 39.5486 114.506C38.7705 114.247 39.4894 115.498 38.9798 115.644C38.8433 115.685 38.4019 115.234 36.1357 115.189L36.5908 111.321C36.7455 111.339 37.9969 111.08 38.0697 111.093C38.2244 111.116 38.6021 111.539 38.6385 111.548Z" fill="#734648"/>
<path d="M38.1838 118.829C38.1565 118.884 38.0928 119.434 37.7288 119.967L37.16 120.422C36.6503 120.276 35.308 120.353 34.771 120.422L35.226 117.691C35.4217 117.755 36.4183 117.65 38.1838 118.829Z" fill="#734648"/>
<path d="M38.8659 107.453C39.0707 107.426 39.0661 107.517 39.0934 107.681C39.2072 108.345 40.1582 108.991 40.4586 109.615L40.1173 109.956L27.2622 109.728C27.3942 109.378 27.872 109.009 27.9448 108.591C30.0516 108.554 32.2495 107.899 34.3154 107.681C35.4212 107.562 37.7874 107.426 38.8659 107.453Z" fill="#94635C"/>
<path d="M39.7766 127.02C39.2579 127.735 38.821 128.954 37.9564 129.523C37.5697 128.395 36.8643 127.485 36.5913 126.338C37.6197 126.661 38.6754 127.034 39.7766 127.02Z" fill="#CCE4D0"/>
<path d="M98.7049 129.295C101.826 136.549 111.646 140.758 117.248 145.904C117.962 146.023 117.999 145.458 118.044 145.449C119.742 145.181 122.69 144.826 123.96 144.539C123.682 145.832 126.913 148.671 128.055 151.024C130.531 156.129 129.498 161.157 131.013 160.011C130.854 161.171 130.021 164.934 129.648 165.926C129.302 166.846 126.713 171.191 126.008 172.07C121.457 177.753 116.138 178.135 109.854 174.8C100.188 169.667 94.3091 154.063 88.2388 145.449C84.3572 139.943 80.0889 137.527 74.1323 134.528C78.7146 133.486 83.9659 133.331 88.5801 131.57C94.3592 129.363 96.061 126.173 96.5434 126.11C97.9131 125.932 97.4171 129.586 98.7049 129.295Z" fill="#4F2B32"/>
<path d="M98.7047 118.601C97.4169 122.787 96.9073 125.122 98.7047 129.295C97.4169 129.586 97.9129 125.932 96.5432 126.109C96.0609 126.173 94.359 129.363 88.5799 131.57C83.9657 133.331 78.7145 133.486 74.1322 134.528C70.5874 132.744 70.9423 132.207 65.3725 132.252C65.0449 132.011 65.0495 131.816 65.0312 131.797C70.5237 130.719 79.529 129.936 84.257 127.474C85.0988 127.038 90.5912 122.929 90.7414 122.355C91.0372 121.227 89.8313 119.497 89.6038 118.373C90.6777 118.888 91.7061 119.466 92.7891 119.966C93.1759 120.144 93.8721 122.332 97.3396 117.691C97.7946 117.832 98.7366 117.714 98.7047 118.601Z" fill="#734648"/>
<path d="M130.103 142.719C131.337 148.302 131.792 154.318 131.013 160.011C129.498 161.157 130.531 156.129 128.056 151.023C126.913 148.671 123.683 145.831 123.96 144.539C125.371 144.22 128.793 143.224 130.103 142.719Z" fill="#734648"/>
<path d="M89.3768 118.146C89.6954 118.301 89.5907 118.364 89.6044 118.373C89.8319 119.497 91.0378 121.227 90.742 122.355C90.5918 122.928 85.0994 127.037 84.2576 127.474C79.5296 129.936 70.5243 130.719 65.0318 131.797C63.7395 130.487 64.8362 129.499 65.9419 128.839C66.1239 128.735 66.4971 129.39 69.3548 126.906L64.1217 126.564C62.6701 124.171 62.388 122.801 65.7144 122.241C67.1478 123.402 69.3912 124.348 70.8337 125.654C71.2114 124.976 71.7984 124.407 72.3126 123.834C72.9497 123.12 73.2591 122.66 73.6777 121.786C73.8734 121.381 73.8688 120.735 73.9053 120.649C74.0964 120.153 74.606 118.323 74.9291 118.146C75.102 118.05 76.54 118.282 77.5456 117.691C79.7435 118.869 82.2144 119.425 84.4851 120.421L84.5989 119.966V116.098C85.9503 116.881 87.9252 117.445 89.3768 118.146Z" fill="#94635C"/>
<path d="M68.2165 117.919L69.1266 118.146C70.1869 118.551 72.403 121.013 73.6771 121.787C73.2584 122.66 72.949 123.12 72.3119 123.834C69.7728 122.624 67.2245 121.277 64.3486 121.104C62.6331 118.679 64.1166 117.118 68.2165 117.919Z" fill="#734648"/>
<path d="M72.312 123.834C71.7978 124.408 71.2107 124.976 70.8331 125.654C69.3906 124.348 67.1472 123.402 65.7138 122.242C65.1632 121.796 64.8355 121.796 64.3486 121.104C67.2245 121.277 69.7728 122.624 72.312 123.834Z" fill="#452E2C"/>
<path d="M73.9049 120.649C73.8685 120.735 73.8731 121.382 73.6774 121.787C72.4033 121.013 70.1872 118.551 69.1269 118.146C69.1042 118.137 69.2953 118.083 68.6719 117.919C68.0075 116.881 66.8335 116.476 66.1691 115.416C66.1418 115.138 66.3875 115.202 66.3966 115.188C69.4227 116.271 71.6433 118.474 73.9049 120.649Z" fill="#452E2C"/>
<path d="M69.3544 112.458C67.8437 113.619 67.5524 113.518 66.3966 115.188C66.3875 115.202 66.1418 115.138 66.1691 115.416C64.6902 113.045 65.9234 112.727 65.9416 111.776C67.2794 111.584 68.1758 112.008 69.3544 112.458Z" fill="#94635C"/>
<path d="M65.9418 128.84C65.3639 128.067 64.6267 127.398 64.1216 126.565L69.3546 126.906C66.4969 129.391 66.1238 128.736 65.9418 128.84Z" fill="#452E2C"/>
<path d="M68.6718 117.918C69.2953 118.082 69.1041 118.137 69.1269 118.146L68.2168 117.918C68.3533 117.946 68.5444 117.887 68.6718 117.918Z" fill="#BAA8A1"/>
<path d="M97.3395 117.691C93.8721 122.333 93.1759 120.144 92.7891 119.966C95.9516 117.609 95.0097 116.968 97.3395 117.691Z" fill="#734648"/>
<path d="M78.4554 111.548C80.5486 112.995 82.3734 114.811 84.5985 116.098V119.966C82.2414 119.429 73.3725 114.255 74.1325 111.775L78.4554 111.548Z" fill="#734648"/>
<path d="M77.5451 117.691C76.5395 118.283 75.1015 118.051 74.9286 118.146C74.6055 118.324 74.0959 120.153 73.9048 120.649C71.6432 118.474 69.4225 116.271 66.3965 115.188C67.5523 113.518 67.8435 113.618 69.3543 112.458C72.5533 113.682 76.2391 116.99 77.5451 117.691Z" fill="#734648"/>
<path d="M93.9267 107.453C93.8812 108.904 93.6901 110.319 93.6992 111.776C93.6992 112.249 93.5945 114.333 93.8129 114.506C96.0882 113.591 97.244 112.262 99.6148 113.596C98.7547 114.852 99.3008 116.417 99.6148 117.805C98.9186 118.833 98.7229 118.542 98.7047 118.601C98.7365 117.714 97.7946 117.832 97.3396 117.691C95.0097 116.968 95.9517 117.609 92.7891 119.966C91.7061 119.466 90.6777 118.888 89.6038 118.374C89.5901 118.365 89.6948 118.301 89.3762 118.146L90.9689 97.7828C90.8597 97.4688 86.5822 97.2277 85.9634 97.214C96.8754 87.2894 94.1588 100.286 93.9267 107.453Z" fill="#CCE4D0"/>
<path d="M89.3765 118.146C87.9249 117.446 85.95 116.881 84.5985 116.099C82.3734 114.811 80.5486 112.995 78.4554 111.548C77.7273 111.043 75.1745 108.39 74.1325 111.776C73.3725 114.256 82.2414 119.43 84.5985 119.967L84.4848 120.422C82.2141 119.425 79.7432 118.87 77.5453 117.691C76.2393 116.991 72.5534 113.682 69.3545 112.458C68.1759 112.008 67.2794 111.585 65.9416 111.776C66.019 107.253 64.8996 98.5202 70.037 97.4417C72.4124 97.8149 74.7149 97.4053 77.0903 97.4417C80.0299 97.4872 83.065 97.1414 85.9637 97.2142C86.5825 97.2279 90.86 97.469 90.9692 97.783L89.3765 118.146Z" fill="#18141A"/>
<path d="M78.4553 111.548L74.1323 111.775C75.1744 108.39 77.7272 111.043 78.4553 111.548Z" fill="#B07B6C"/>
<path d="M70.6058 100.399C70.8106 100.326 74.7376 100.299 74.9288 100.399C77.5134 101.783 67.6161 101.437 70.6058 100.399Z" fill="#E3D6C6"/>
</svg>
