<svg width="390" height="407" viewBox="0 0 390 407" fill="none" xmlns="http://www.w3.org/2000/svg">
<path d="M186.358 298.883C182.804 313.907 183.345 334.511 190.333 348.565C160.021 348.367 110.599 345.561 81.6229 338.629C72.1152 336.355 48.8947 329.956 71.8847 322.929C66.6142 318.239 55.2861 309.288 62.9415 313.191C66.964 315.242 78.4431 324.265 82.4178 323.128C82.8074 323.017 82.5291 321.999 82.6166 321.936C82.871 321.753 83.3559 321.928 84.2065 320.346C84.8981 321.3 85.5261 322.15 86.1939 323.128C87.4181 324.924 88.8093 326.459 88.7775 328.692C119.017 334.622 150.235 335.139 180.992 335.449L181.986 334.456C181.7 331.554 182.375 326.546 181.986 324.32C181.819 323.35 178.329 316.848 177.613 316.371C176.032 312.063 171.651 306.983 170.061 303.056C167.692 297.213 166.802 284.439 165.292 292.722C164.33 297.985 167.629 309.384 170.459 314.384C168.638 313.255 164.672 307.015 163.304 304.845C160.522 288.946 157.74 273.048 154.957 257.149C157.915 257.308 172.907 255.901 174.434 256.951C178.822 270.798 180.992 285.393 186.358 298.883Z" fill="#090A09"/>
<path d="M198.68 348.566C201.589 344.559 203.052 339.813 204.244 335.052C205.023 334.988 205.294 334.607 206.232 334.654C207.376 334.718 208.561 335.036 209.809 335.052C236.782 335.441 271.243 333.025 297.85 328.295C299.44 327.564 300.648 324.988 301.626 323.525C303.327 324.607 303.86 323.899 305.203 323.525C313.749 321.133 331.437 296.252 314.743 322.134C343.663 327.421 319.187 335.362 306.992 338.232C278 345.052 228.944 348.391 198.68 348.566Z" fill="#090A09"/>
<path d="M314.743 251.982C313.384 256.736 300.76 273.755 297.652 279.805L295.863 281.792C291.101 283.056 287.103 286.132 283.144 288.946L284.137 281.991H278.97C284.519 270.711 299.051 254.073 303.614 246.219C303.757 245.981 303.479 245.075 303.614 244.828C305.013 242.356 306.444 239.876 307.589 237.276C306.77 240.273 308.837 239.097 309.973 240.257C310.323 246.044 314.918 239.288 315.538 241.052C315.546 244.216 315.594 249.009 314.743 251.982Z" fill="#D2DBD7"/>
<path d="M273.405 87.8389C271.219 84.8579 260.209 85.4621 256.91 86.249C251.886 87.4414 246.027 91.6306 241.806 94.5957C241.178 94.3811 240.471 86.9724 233.658 84.8579C239.795 79.9612 239.246 72.0199 230.876 70.9468C231.408 70.2552 230.693 67.2981 230.478 66.7734C233.165 69.2854 237.227 69.4285 240.614 70.748C250.741 74.6909 260.13 80.2394 269.629 85.4541C269.868 85.5813 271.14 85.1918 272.412 85.8516C273.684 86.7896 273.294 87.3063 273.405 87.8389Z" fill="#E0D9DC"/>
<path d="M78.2525 262.316C80.7646 263.978 106.68 289.558 107.268 291.53C107.419 292.039 107.562 295.584 106.672 295.703C105.893 295.807 101.871 290.552 93.7541 286.959C93.5236 286.093 94.6842 285.87 94.5491 285.17C94.2867 283.795 77.6325 267.38 75.4702 264.701C75.6531 264.161 75.669 263.127 75.8677 262.316C76.8057 260.274 76.6865 261.283 78.2525 262.316Z" fill="#DADEE3"/>
<path d="M288.907 112.879C288.891 112.966 288.509 112.831 288.112 114.469L284.535 110.295C287.086 105.677 283.485 102.187 278.572 102.346C278.223 101.933 281.244 96.9487 276.188 94.5957C275.583 92.052 274.097 94.4049 273.405 90.6211C283.859 93.1171 290.711 102.052 288.907 112.879Z" fill="#7EA53E"/>
<path d="M306.793 290.139C295.99 294.654 290.592 305.433 293.279 294.511C300.028 291.053 307.024 286.951 314.544 285.369C324.004 283.382 340.229 284.423 335.213 286.164C334.37 286.458 320.657 286.41 317.327 286.959C313.884 288.199 310.188 288.716 306.793 290.139Z" fill="#9EC050"/>
<path d="M82.2273 292.126L76.2652 295.703C69.6273 286.037 60.9862 287.921 50.8267 286.363C61.2167 282.5 73.1648 286.212 82.2273 292.126Z" fill="#9EC050"/>
<path d="M70.7003 305.242L69.9054 305.64C67.8226 303.708 61.5027 299.407 58.9748 298.088C49.7771 293.295 38.5206 292.372 40.6908 290.536C55.3021 291.967 60.6044 295.799 70.7003 305.242Z" fill="#9EC050"/>
<path d="M313.153 305.242C310.503 311.337 307.853 317.431 305.203 323.525C303.86 323.899 303.327 324.606 301.626 323.525C303.613 320.536 306.006 315.457 307.191 311.999C308.82 309.694 310.211 307.071 311.96 304.845L313.153 305.242Z" fill="#152718"/>
<path d="M70.7002 305.242C75.4222 309.662 79.9535 314.344 83.8169 319.551C83.9282 319.702 84.1031 320.195 84.2144 320.346C83.3638 321.928 82.8789 321.753 82.6245 321.936C78.8326 317.214 74.2537 309.67 69.9053 305.64L70.7002 305.242Z" fill="#152718"/>
<path d="M313.153 305.242L311.96 304.845C313.201 303.271 321.834 293.088 322.891 293.318C326.937 294.201 315.872 299.558 313.153 305.242Z" fill="#9EC050"/>
<path d="M335.809 289.741C335.761 289.757 335.96 290.409 335.61 290.536C332.796 291.554 329.855 292.364 327.064 293.517C329.306 290.973 332.701 290.314 335.809 289.741Z" fill="#B7BD83"/>
<path d="M335.809 289.741C336.286 289.574 337.367 288.803 338.79 288.549C348.727 289.225 339.514 289.058 335.809 289.741Z" fill="#B7BD83"/>
<path d="M330.046 289.741C330.276 289.63 331.039 289.725 331.039 289.94C331.039 290.393 329.338 290.083 330.046 289.741Z" fill="#B7BD83"/>
<path d="M146.213 114.469C146.102 115.637 144.679 117.895 144.623 118.443L129.916 131.957C122.229 131.719 134.122 118.277 135.481 115.264C139.591 114.461 141.801 113.443 146.213 114.469Z" fill="#507633"/>
<path d="M154.56 119.636C156.245 121.098 156.046 121.917 156.15 122.021C152.032 124.127 158.463 126.583 157.342 128.38C154.933 123.96 154.655 129.103 148.2 129.572C147.676 129.612 147.135 129.54 146.61 129.572C146.3 125.908 144.218 122.219 144.623 118.443C144.679 117.895 146.102 115.637 146.213 114.469C149.186 115.16 152.286 117.664 154.56 119.636Z" fill="#7EA53E"/>
<path d="M146.611 129.572C141.094 127.41 133.375 132.068 129.917 131.957L144.623 118.443C144.218 122.219 146.3 125.908 146.611 129.572Z" fill="#1E2C20"/>
<path d="M125.544 192.363C123.621 192.244 118.835 192.172 117.197 192.363C116.84 191.894 116.911 191.568 116.8 191.171C119.844 190.432 124.487 188.102 125.544 192.363Z" fill="#9EC050"/>
<path d="M135.481 115.264C134.122 118.276 122.229 131.718 129.916 131.957C133.374 132.068 141.093 127.41 146.61 129.572C147.135 129.54 147.676 129.612 148.2 129.572C147.97 131.21 151.301 129.914 151.976 130.367C153.208 131.194 147.572 138.968 146.213 142.49C140.95 156.154 144.989 155.351 157.74 152.824C153.057 168.404 152.302 184.779 149.393 200.718C146.841 198.317 142.961 195.702 139.456 195.153C136.721 194.088 128.35 192.546 125.544 192.371C124.487 188.11 119.844 190.439 116.8 191.179C116.768 191.067 115.774 190.813 116.8 188.794C119.876 187.212 122.062 183.659 125.147 182.037C124.526 182.832 123.906 183.555 123.159 184.223L123.755 184.819L133.494 178.659C133.533 178.293 130.346 176.616 129.916 176.473C126.88 175.423 126.546 176.385 123.954 178.857C103.587 182.721 107.268 183.126 116.203 166.933C112.221 169 103.802 175.089 99.7081 170.908C99.6445 170.844 99.7955 170.296 98.9131 169.318C101.584 166.584 106.33 159.366 109.247 156.003C107.451 156.393 96.6077 160.765 95.932 160.574C95.6935 160.51 95.0258 159.231 94.9383 158.984C94.8509 158.73 95.1212 158.134 94.5409 157.394C95.9161 156.409 104.374 147.506 104.08 146.862C101.95 147.331 99.6604 148.324 97.5219 148.65C82.9346 150.852 92.5535 149.127 92.3547 141.496L81.0267 142.291C81.13 142.084 80.9551 141.242 81.0267 140.701C86.6629 140.129 87.9268 128.125 78.2443 128.578C86.1462 121.838 78.4033 120.144 78.2443 119.437C78.0535 118.586 80.0727 118.046 79.8342 116.655C79.715 115.971 70.9864 110.065 70.6923 107.513C70.0961 102.267 77.1393 108.093 76.2569 101.949C75.7879 98.6656 64.7142 89.6988 64.3326 88.8324C61.4072 82.2266 77.0757 88.117 78.8405 90.621C80.3271 85.9786 83.7136 86.1217 86.7901 89.4286C90.6774 68.4426 92.0288 89.0232 93.1497 89.4286C95.0417 88.5462 98.2374 83.8721 100.106 86.4476C104.828 92.958 96.4011 113.57 108.651 92.2108C112.189 96.249 117.197 100.605 115.806 106.519C125.425 93.9835 135.481 83.1089 126.736 108.308C134.448 100.804 139.575 106.186 135.481 115.264Z" fill="url(#paint0_linear_111_149)"/>
<path d="M116.41 88.2362C116.855 88.745 118.366 92.3539 118.994 92.2108C124.375 83.2044 127.293 87.8626 134.296 94.5956C137.802 97.9661 140.95 102.338 144.83 105.725C159.051 118.125 150.665 107.322 150.196 101.949C149.647 95.6926 153.296 87.6082 160.53 89.4286C161.07 94.5161 193.393 103.03 178.615 100.558C174.457 99.858 159.441 92.815 158.145 98.3715C156.078 107.227 179.14 111.774 185.173 111.09C173.265 114.493 156.778 104.588 158.94 114.667C159.186 115.804 161.063 117.434 162.12 118.046C161.102 119.421 160.411 117.052 159.337 117.052C160.307 118.65 160.506 119.111 160.132 120.828C159.616 115.741 152.39 113.38 154.568 119.636C152.294 117.664 149.194 115.16 146.221 114.469C141.809 113.443 139.599 114.469 135.489 115.264C139.583 106.186 134.455 100.804 126.744 108.308C135.489 83.109 125.433 93.9835 115.814 106.519C117.205 100.605 112.197 96.249 108.659 92.2108C96.409 113.57 104.836 92.9581 100.113 86.4477C98.2454 83.8721 95.0496 88.5462 93.1577 89.4286C92.0368 89.0232 90.6853 68.4427 86.798 89.4286C83.7216 86.1217 80.3351 85.9787 78.8485 90.621C77.0837 88.117 61.4152 82.2266 64.3406 88.8324C64.7222 89.6989 75.7959 98.6656 76.2649 101.949C77.1473 108.093 70.104 102.267 70.7002 107.513C70.9944 110.065 79.7229 115.971 79.8422 116.655C80.0807 118.046 78.0615 118.586 78.2523 119.437C78.4113 120.144 86.1541 121.838 78.2523 128.579C87.9348 128.125 86.6708 140.129 81.0346 140.701C79.1824 140.892 75.5812 138.579 74.675 136.925C71.2567 130.701 77.9661 126.671 70.3028 125.399C74.6193 118.165 67.2104 119.97 66.328 115.065C66.1451 114.071 66.8288 110.136 66.7255 109.898C66.0657 108.348 58.6726 108.634 65.533 96.7816C46.3031 89.8897 62.0114 68.864 77.6561 78.2997C82.1555 71.1216 88.4992 75.7083 89.9778 75.5175C98.3805 70.891 101.942 77.0596 102.697 85.0565C103.937 85.5017 106.529 76.8847 116.41 88.2362Z" fill="#9EC050"/>
<path d="M94.5489 157.387C87.2989 162.601 84.4927 158.786 85.8044 150.829C85.7249 150.566 83.666 149.907 81.0347 148.245C77.1315 144 80.5577 143.213 81.0347 142.283L92.3627 141.488C92.5615 149.12 82.9426 150.845 97.5299 148.643C99.6684 148.317 101.958 147.323 104.088 146.854C104.382 147.498 95.9241 156.401 94.5489 157.387Z" fill="#9EC050"/>
<path d="M123.954 178.85C125.377 178.579 127.547 178.563 127.929 178.452C128.016 179.382 126.522 180.257 125.147 182.029C122.062 183.651 119.876 187.204 116.8 188.786C108.898 192.848 105.654 189.104 106.664 180.837C99.7718 187.164 96.1945 176.592 99.7082 170.9C103.802 175.082 112.221 168.993 116.203 166.926C107.268 183.118 103.588 182.713 123.954 178.85Z" fill="#9EC050"/>
<path d="M98.9213 169.311C98.8339 169.398 97.4109 170.479 96.9339 170.9C96.3854 171.393 93.0386 174.478 92.7604 174.478C90.9082 174.493 86.5995 165.678 94.9465 158.977C95.034 159.223 95.7017 160.503 95.9402 160.566C96.6159 160.757 107.459 156.385 109.256 155.996C106.338 159.358 101.592 166.576 98.9213 169.311Z" fill="#9EC050"/>
<path d="M125.147 182.029C126.522 180.257 128.016 179.382 127.929 178.452C128.931 178.174 129.861 177.617 129.916 176.465C130.346 176.608 133.533 178.285 133.494 178.651L123.755 184.812L123.159 184.215C123.906 183.548 124.526 182.824 125.147 182.029Z" fill="#3B562E"/>
<path d="M129.916 176.464C129.861 177.617 128.931 178.173 127.929 178.452C127.547 178.563 125.377 178.579 123.954 178.849C126.546 176.377 126.88 175.415 129.916 176.464Z" fill="#FEFEFC"/>
<path d="M90.1766 246.815C94.0639 253.254 98.8495 254.733 99.3186 255.162C100.01 255.782 101.02 256.124 101.703 256.752C102.649 257.618 114.836 272.801 116.013 274.836C119.359 280.608 121.275 287.293 123.565 293.517C116.688 282.571 106.322 274.622 94.9463 268.676C94.1434 267.976 93.102 267.571 92.164 267.086C89.8904 261.887 86.2575 256.45 82.6246 252.38C82.2748 251.99 82.2907 251.577 81.4321 251.386C82.4894 249.272 90.0494 258.08 88.1892 245.822C88.4357 245.361 90.0733 246.784 90.1766 246.815Z" fill="#E4EFE7"/>
<path d="M104.883 232.904C104.605 233.89 105.901 233.683 106.076 234.295C106.298 235.09 108.572 249.773 108.46 250.591C108.413 250.925 107.689 250.742 107.665 250.79C107.642 250.822 106.918 249.717 106.87 250.989C117.793 263.493 135.155 279.59 136.681 296.299C132.961 287.841 130.457 278.962 122.571 273.445C126.816 279.988 129.328 288.04 129.924 295.504C124.51 282.166 119.407 275.759 110.845 265.099C109.629 263.588 108.23 262.293 106.87 260.925C107.816 251.482 99.0561 244.653 97.7285 238.071C102.633 235.17 104.653 242.698 100.511 232.904L100.71 231.314C102.045 231.974 103.42 232.578 104.883 232.904Z" fill="#FEFEFC"/>
<path d="M134.686 271.855C136.554 275.194 136.944 274.661 135.879 276.227C131.697 271.895 127.11 265.679 122.563 261.919C119.717 259.566 116.895 258.222 114.017 256.752C111.951 254.765 109.295 253.278 107.658 250.79C107.682 250.742 108.405 250.925 108.453 250.591C108.564 249.772 106.29 235.09 106.068 234.295C105.893 233.683 104.597 233.89 104.875 232.904C105.265 232.992 105.329 233.302 105.67 233.302C108.405 234.264 108.691 231.473 108.85 231.314C109.605 230.567 111.664 229.589 110.838 228.532C110.838 228.572 111.585 228.397 111.633 228.731C111.839 230.273 111.402 232.411 111.633 233.898C116.617 265.893 125.338 255.114 134.686 271.855Z" fill="#FEFEFC"/>
<path d="M97.7288 238.071C99.0564 244.645 107.817 251.482 106.871 260.925C108.23 262.293 109.629 263.588 110.846 265.099C108.461 263.58 103.786 258.874 102.101 256.752C98.5953 252.324 99.0325 252.141 96.7351 247.213C97.5619 250.591 96.0594 249.55 96.1389 250.591C96.1628 250.877 99.5095 253.628 99.3187 255.162C98.8497 254.733 94.0641 253.254 90.1768 246.815C91.6872 247.261 93.1737 247.269 94.549 248.207L92.1641 242.642C100.312 246.044 94.7318 243.866 96.1389 239.065C96.3774 238.262 97.6493 238.119 97.7288 238.071Z" fill="#FEFEFC"/>
<path d="M94.9465 268.676C100.289 273.302 111.267 278.7 107.467 287.356C101.584 280.965 95.2407 274.654 88.5869 269.073C88.6108 265.552 91.8383 269.964 92.1642 267.086C93.1022 267.571 94.1436 267.976 94.9465 268.676Z" fill="#FEFEFC"/>
<path d="M92.1642 267.086C91.8383 269.964 88.6108 265.552 88.5869 269.073C86.0033 266.903 74.9694 258.143 78.2525 262.316C76.6865 261.283 76.8057 260.273 75.8677 262.316C76.1221 261.267 76.1221 258.016 76.2652 256.553C77.2668 254.788 81.2495 261.871 82.6248 252.38C86.2577 256.45 89.8827 261.887 92.1642 267.086Z" fill="#D2DBD7"/>
<path d="M177.614 316.371L176.62 315.576C175.499 315.425 173.408 315.791 172.844 315.576C172.558 315.473 170.753 314.567 170.459 314.384C167.629 309.384 164.33 297.985 165.292 292.722C166.802 284.439 167.693 297.213 170.062 303.056C171.652 306.983 176.032 312.063 177.614 316.371Z" fill="#7EA53E"/>
<path d="M135.878 271.855C137.858 275.242 141.062 282.627 143.828 280.6C144.488 280.115 143.931 279.677 144.623 279.407C145.14 282.992 145.744 286.546 146.213 290.139C146.459 292.031 147.103 293.748 147.008 293.915H146.213C144.051 288.294 138.74 281.967 134.686 277.42C135.298 277.269 135.56 276.697 135.878 276.228C136.944 274.662 136.554 275.194 134.686 271.855H135.878Z" fill="#E4EFE7"/>
<path d="M135.878 276.228C135.56 276.697 135.298 277.269 134.686 277.42C132.317 274.765 117.801 260.377 114.017 256.752C116.895 258.223 119.717 259.566 122.563 261.919C127.11 265.679 131.697 271.895 135.878 276.228Z" fill="#FEFEFC"/>
<path d="M107.666 250.79C109.303 253.27 111.959 254.764 114.025 256.752C117.809 260.377 132.325 274.765 134.694 277.42C138.748 281.967 144.059 288.286 146.221 293.914H147.016C147.111 293.747 146.467 292.03 146.221 290.139C153.153 287.817 150.625 277.809 147.811 272.65C147.906 272.849 148.701 273.159 150.196 276.426C154.775 286.402 157.16 295.075 163.312 304.845C164.68 307.015 168.647 313.255 170.467 314.384C170.761 314.566 172.566 315.473 172.852 315.576C175.626 318.374 178.234 323.279 181.994 324.32C182.383 326.546 181.708 331.554 181.994 334.455L181 335.449C150.243 335.139 119.034 334.622 88.7856 328.692C88.8174 326.459 87.4263 324.924 86.202 323.128C87.3627 322.015 85.2402 318.096 84.2147 315.179C82.2193 309.511 79.4052 300.274 76.2651 295.703L82.2273 292.126C85.9238 290.727 92.832 296.784 96.139 299.678C99.6765 302.786 101.131 305.552 97.3314 299.678C93.929 294.407 90.5743 288.954 85.8046 284.773C85.6058 283.509 92.7684 286.522 93.7541 286.959C101.871 290.552 105.893 295.806 106.672 295.703C107.562 295.584 107.419 292.038 107.268 291.53C106.68 289.558 80.7646 263.978 78.2525 262.316C74.9694 258.143 86.0033 266.903 88.5869 269.073C95.2407 274.653 101.584 280.965 107.467 287.356C111.267 278.7 100.289 273.302 94.9465 268.676C106.314 274.622 116.688 282.571 123.565 293.517C121.275 287.293 119.36 280.607 116.013 274.836C114.836 272.801 102.65 257.618 101.704 256.752H102.101C103.778 258.874 108.461 263.58 110.846 265.098C119.407 275.758 124.511 282.158 129.924 295.504C129.328 288.04 126.816 279.987 122.571 273.445C130.457 278.962 132.961 287.833 136.682 296.299C135.155 279.59 117.793 263.493 106.871 250.989C106.919 249.717 107.642 250.822 107.666 250.79Z" fill="url(#paint1_linear_111_149)"/>
<path d="M86.2022 323.128C85.5345 322.15 84.9065 321.3 84.2149 320.346C84.1036 320.195 83.9287 319.702 83.8174 319.551C86.0433 318.796 83.3722 316.896 84.2149 315.179C85.2403 318.096 87.3629 322.015 86.2022 323.128Z" fill="#C8CAB5"/>
<path d="M97.3316 299.678C101.131 305.552 99.6767 302.786 96.1392 299.678H97.3316Z" fill="#B8CD99"/>
<path d="M147.803 272.65C150.617 277.809 153.145 287.817 146.213 290.139C145.744 286.546 145.14 282.992 144.623 279.407C143.709 273.127 142.501 266.895 142.238 260.528C143.637 263.262 144.917 266.092 146.213 268.875C146.428 269.336 145.593 269.614 145.816 270.067C147.374 273.318 147.731 272.499 147.803 272.65Z" fill="#7EA53E"/>
<path d="M177.613 316.371C178.329 316.848 181.819 323.35 181.986 324.32C178.234 323.279 175.618 318.374 172.844 315.576C173.408 315.79 175.499 315.425 176.62 315.576L177.613 316.371Z" fill="#6B8F3C"/>
<path d="M102.101 256.752H101.703C101.02 256.124 100.01 255.782 99.3186 255.162C99.5094 253.628 96.1627 250.877 96.1388 250.591C96.0593 249.55 97.5618 250.591 96.735 247.213C99.0324 252.141 98.5952 252.324 102.101 256.752Z" fill="#B8CD99"/>
<path d="M295.266 217.403C295.425 218.556 294.996 219.852 295.465 220.98C295.68 221.155 298.677 218.461 299.639 218.198C301.427 217.705 301.88 218.127 302.024 220.186C302.27 223.683 298.375 225.996 304.806 224.359C304.575 238.763 308.192 229.446 309.973 231.911C309.56 233.89 308.359 235.527 307.588 237.276C306.443 239.876 305.013 242.356 303.613 244.828C298.812 252.674 291.713 258.747 286.124 265.894C283.255 263.938 273.278 278.58 275.393 280.6C271.64 285.981 268.27 291.617 264.661 297.094C266.195 288.096 268.087 275.552 272.213 267.483C273.381 265.202 278.159 259.025 280.162 256.553L279.566 255.957C278.851 256.505 278.374 257.3 277.777 257.944C274.017 260.258 266.243 265.997 267.046 269.868C265.535 270.957 266.274 272.547 262.276 271.061C266.6 261.903 273.405 253.04 276.585 243.238C279.749 236.259 282.921 224.351 282.15 216.807C282.213 216.473 282.937 216.648 282.945 216.608C283.127 215.75 283.962 210.591 284.733 210.646L288.311 217.403L294.67 213.031C294.829 214.494 295.068 215.949 295.266 217.403Z" fill="#D2DBD7"/>
<path d="M271.816 267.483C266.219 276.919 261.124 286.736 256.115 296.498C255.058 296.562 257.928 281.76 258.301 280.401C259.216 277.11 260.829 274.129 262.276 271.061C266.275 272.547 265.536 270.957 267.046 269.868C269.002 268.453 270.623 266.847 272.611 265.496C272.555 265.584 272.547 266.243 271.816 267.483Z" fill="#FEFEFC"/>
<path d="M223.721 306.435C219.452 311.435 217.616 316.109 214.976 321.936C214.722 320.004 213.847 319.296 213.784 319.153C212.154 315.362 210.517 310.902 209.809 306.832L223.721 306.435Z" fill="#1E2C20"/>
<path d="M279.368 212.236C280.656 213.596 281.737 215.178 282.945 216.608C282.937 216.648 282.214 216.473 282.15 216.807C282.921 224.351 279.749 236.259 276.585 243.238C276.403 243.27 275.814 243.985 275.79 244.033C274.32 243.04 276.442 241.028 276.983 239.065C278.382 233.969 279.082 222.976 278.97 217.602C278.97 217.276 278.175 217.443 278.175 217.403C278.167 217.165 279.105 215.933 278.175 212.634C278.263 212.602 277.825 211.203 279.368 212.236Z" fill="#FEFEFC"/>
<path d="M262.276 271.061C260.829 274.129 259.215 277.11 258.301 280.401C257.928 281.76 255.058 296.562 256.115 296.498C261.123 286.736 266.219 276.919 271.815 267.483H272.213C268.087 275.552 266.195 288.096 264.661 297.094C268.27 291.617 271.641 285.981 275.393 280.6C278.509 276.124 282.81 270.138 286.125 265.894C291.713 258.747 298.812 252.674 303.614 244.828C303.478 245.075 303.757 245.981 303.614 246.219C299.05 254.073 284.519 270.711 278.97 281.991H284.137L283.143 288.946C287.102 286.132 291.101 283.056 295.863 281.792L297.651 279.805C302.617 276.757 307.586 273.71 312.557 270.663C323.44 270.313 332.105 262.42 335.213 260.727C341.708 257.181 333.83 265.297 326.468 268.676C316.714 273.159 304.146 273.223 298.049 283.581C297.747 284.097 293.422 293.93 293.279 294.511C290.592 305.433 295.99 294.654 306.793 290.139C304.711 299.503 309.846 302.086 303.614 316.57C304.854 315.218 306.134 313.501 307.191 311.999C306.006 315.457 303.614 320.536 301.626 323.525C300.648 324.988 299.44 327.564 297.85 328.295C271.243 333.025 236.782 335.441 209.809 335.052C210.564 331.212 212.655 327.858 214.181 324.32C214.801 322.889 214.69 322.564 214.976 321.936C217.616 316.109 219.452 311.435 223.721 306.435C224.078 298.692 222.767 290.711 224.913 283.183C227.759 290.004 230.608 296.827 233.459 303.652C234.151 299.431 233.212 294.932 233.658 290.735C233.769 289.67 234.818 287.182 234.85 286.959L237.831 290.139C248.476 266.291 253.11 256.116 243.197 287.555C240.264 303.279 243.603 290.83 247.172 284.773C255.503 270.639 265.615 265.448 275.79 244.033C275.814 243.986 276.402 243.27 276.585 243.238C273.405 253.04 266.601 261.903 262.276 271.061Z" fill="url(#paint2_linear_111_149)"/>
<path d="M214.181 324.32C212.655 327.858 210.564 331.212 209.809 335.052C208.561 335.036 207.376 334.718 206.232 334.654C205.405 331.125 206.017 327.484 205.834 323.923C208.616 324.055 211.399 324.188 214.181 324.32Z" fill="#3B562E"/>
<path d="M213.784 319.153C213.847 319.288 214.722 320.004 214.976 321.936C214.69 322.564 214.801 322.889 214.181 324.32C211.399 324.188 208.616 324.055 205.834 323.923C205.747 322.182 205.333 319.98 205.834 318.756L213.784 319.153Z" fill="#507633"/>
<path d="M286.125 265.894C282.81 270.138 278.509 276.124 275.393 280.6C273.278 278.588 283.255 263.938 286.125 265.894Z" fill="#E4EFE7"/>
<path d="M272.213 267.483H271.815C272.547 266.243 272.555 265.591 272.61 265.496C273.938 263.318 276.156 259.709 277.778 257.944C278.374 257.3 278.851 256.506 279.566 255.957L280.162 256.553C278.159 259.025 273.381 265.202 272.213 267.483Z" fill="#A2B668"/>
<path d="M322.295 189.581C315.371 178.174 305.792 174.048 292.882 177.26C290.719 168.524 286.53 160.256 284.137 151.624C282.667 146.329 283.032 143.881 282.945 143.476C286.737 141.894 287.365 134.978 285.727 131.353C289.837 128.118 289.885 121.989 286.92 118.038C287.341 116.79 287.691 116.202 288.112 114.461C288.509 112.823 288.891 112.959 288.907 112.871C302.596 130.153 313.725 149.279 319.513 170.702C320.602 174.724 323.758 188.063 322.295 189.581Z" fill="#E0D9DC"/>
<path d="M81.0346 148.245C83.6659 149.907 85.7248 150.566 85.8043 150.829C84.4926 158.786 87.2988 162.601 94.5488 157.387C95.1291 158.126 94.8588 158.722 94.9462 158.977C86.5992 165.678 90.9079 174.493 92.7601 174.478C93.0384 174.478 96.3851 171.393 96.9336 170.9L87.7917 198.921C88.1176 199.669 102.061 195.336 103.691 196.338C92.4024 198.993 68.8002 202.069 66.7254 216.012C66.2802 216.569 65.8351 215.75 64.738 216.211C63.2276 192.093 69.2534 167.832 78.8484 145.86C79.1903 147.331 79.8739 147.514 81.0346 148.245Z" fill="#E0D9DC"/>
<path d="M161.317 67.9658C161.325 68.0533 161.674 69.1105 161.714 69.1582C158.344 70.4301 153.439 71.0581 152.175 75.3188C151.133 78.8404 152.723 81.7021 154.957 84.2617C148.067 87.7064 141.178 91.151 134.288 94.5957C127.285 87.8627 124.367 83.2045 118.985 92.2109C118.357 92.354 116.847 88.7451 116.402 88.2363C126.235 77.9739 144.909 71.4317 158.534 67.1709C158.987 67.5763 160.593 67.9499 161.317 67.9658Z" fill="#E0D9DC"/>
<path d="M98.9208 169.311C99.8032 170.288 99.6522 170.837 99.7158 170.9C96.2021 176.592 99.7794 187.164 106.672 180.837C105.662 189.104 108.905 192.848 116.807 188.786C115.782 190.805 116.775 191.06 116.807 191.171C116.919 191.568 116.847 191.894 117.205 192.363C113.333 192.808 108.134 195.479 106.075 195.94C105.956 195.964 106.02 195.789 103.691 196.338C102.061 195.336 88.1174 199.669 87.7915 198.921L96.9335 170.9C97.4104 170.479 98.8334 169.398 98.9208 169.311Z" fill="#FEFEFC"/>
<path d="M154.957 84.2617C157.708 87.4017 159.552 87.1552 160.522 88.6338C160.474 88.8484 160.498 89.1902 160.522 89.4287C153.288 87.6004 149.639 95.6927 150.188 101.949C150.657 107.322 159.043 118.125 144.822 105.725C140.942 102.338 137.794 97.9662 134.289 94.5957C141.178 91.151 148.068 87.7064 154.957 84.2617Z" fill="#FEFEFC"/>
<path d="M203.449 315.179C205.747 321.792 204.483 320.33 204.642 322.532C204.658 322.699 205.429 323.168 205.437 323.327C205.572 326.975 204.22 331.22 204.244 335.052C203.052 339.813 201.589 344.559 198.68 348.565C195.897 348.581 193.115 348.581 190.333 348.565C183.345 334.511 182.804 313.907 186.358 298.883C187.01 296.116 187.391 293.422 188.941 290.934C193.314 298.295 200.691 307.229 203.449 315.179Z" fill="url(#paint3_linear_111_149)"/>
<path d="M204.642 315.179C204.737 316.22 204.999 318.112 205.834 318.756C205.333 319.98 205.747 322.182 205.834 323.923C206.017 327.484 205.405 331.125 206.232 334.654C205.294 334.607 205.023 334.988 204.244 335.052C204.22 331.22 205.572 326.975 205.437 323.327C205.437 323.168 204.658 322.699 204.642 322.532C204.483 320.33 205.747 321.792 203.449 315.179H204.642Z" fill="#152718"/>
<path d="M276.188 94.5958C281.243 96.9488 278.223 101.933 278.572 102.346C283.485 102.187 287.086 105.677 284.535 110.296L288.112 114.469C287.691 116.21 287.341 116.798 286.919 118.046C286.18 120.232 285.489 122.188 283.74 123.809C283.835 125.812 284.622 134.572 282.348 135.137C281.919 135.24 279.972 132.8 280.56 137.323C280.663 138.118 282.436 140.725 282.945 143.086C278.127 138.396 286.172 150.089 273.803 154.612C271.609 155.391 267.92 159.827 268.636 161.965C268.882 162.705 275.607 163.738 261.878 171.505C261.767 171.87 262.801 172.943 263.071 173.293C263.993 179.486 261.163 186.425 254.525 182.435C249.684 192.761 234.429 197.268 225.112 190.781C222.862 189.215 222.496 186.544 221.733 187.403C218.307 189.104 207.146 228.532 206.629 234.9C206.589 234.9 206.756 235.694 206.43 235.694C203.918 235.671 201.239 235.337 198.68 235.297C200.285 216.783 208.1 198.667 212.194 182.435L213.784 182.037H214.181C211.359 194.184 207.138 206.092 205.437 218.405C209.284 205.249 212.44 195.821 220.541 184.621C227.536 174.947 231.313 177.927 224.516 169.318C224.675 169.183 224.873 167.268 226.702 165.741C231.67 161.608 249.255 152.14 240.812 145.471C241.369 144.398 243.507 139.04 243.197 138.118C242.084 134.819 237.863 140.781 237.831 135.137C231.408 138.317 224.982 141.496 218.554 144.676C221.694 140.908 226.503 140.932 230.677 138.714C235.566 136.115 243.61 130.153 233.658 128.38C237.481 128.308 240.963 131.56 244.389 125.796C247.355 120.796 246.186 114.358 239.222 115.065C246.091 109.715 240.804 106.456 240.812 105.129C240.82 103.61 244.389 101.853 246.576 98.9679C259.835 101.313 249.056 100.073 250.749 93.6022C250.781 93.4909 251.981 91.9328 252.14 91.8136C257.928 87.6164 258.071 96.3128 263.667 96.9806C272.491 98.0378 270.369 91.8851 276.188 94.5958Z" fill="#152718"/>
<path d="M282.945 143.476C282.921 143.348 282.969 143.205 282.945 143.078C282.436 140.717 280.663 138.11 280.56 137.315C279.972 132.792 281.919 135.232 282.349 135.129C284.622 134.565 283.835 125.804 283.74 123.801C285.489 122.18 286.18 120.224 286.92 118.038C289.885 121.989 289.837 128.118 285.727 131.353C287.365 134.978 286.737 141.894 282.945 143.476Z" fill="#6B8F3C"/>
<path d="M177.614 235.289C180.277 235.408 182.995 235.035 185.563 236.084C190.993 243.461 196.51 250.877 203.648 256.752C206.121 257.618 234.588 256.863 240.017 256.752C238.579 266.847 236.241 276.863 234.85 286.959C234.818 287.181 233.769 289.67 233.658 290.735C233.213 294.932 234.151 299.431 233.459 303.652C230.613 296.832 227.765 290.009 224.913 283.183C222.767 290.711 224.079 298.692 223.721 306.434L209.809 306.832C209.157 303.056 208.847 298.136 209.014 294.312C209.173 290.663 212.909 279.63 207.424 288.747C201.248 299.018 203.958 308.024 204.642 315.179H203.45C200.691 307.229 193.314 298.294 188.942 290.934C187.392 293.422 187.018 296.116 186.358 298.883C180.992 285.401 178.822 270.798 174.434 256.951C172.907 255.901 157.915 257.308 154.957 257.149C154.52 257.125 153.201 255.973 146.61 256.156L144.424 235.289C155.458 235.655 166.596 234.804 177.614 235.289Z" fill="url(#paint4_linear_111_149)"/>
<path d="M240.017 256.752C234.596 256.863 206.12 257.618 203.648 256.752C196.509 250.885 190.993 243.461 185.563 236.084V235.289C187.272 235.384 189.029 235.154 190.73 235.289C192.813 235.448 194.999 235.241 197.09 235.289C197.646 235.305 198.155 235.281 198.68 235.289C201.239 235.329 203.918 235.663 206.43 235.687C206.756 235.687 206.589 234.892 206.629 234.892C221.924 235.011 237.235 235.631 252.538 235.289C251.547 242.374 250.553 249.463 249.557 256.553C249 256.998 241.536 256.72 240.017 256.752Z" fill="#95243E"/>
<path d="M172.446 156.989C171.158 154.135 167.295 152.88 164.497 153.412C163.439 153.865 161.992 151.862 161.714 151.027C160.395 147.108 164.568 143.802 166.881 141.091C167.899 142.514 176.453 159.255 172.446 156.989Z" fill="#507633"/>
<path d="M162.907 140.693C160.538 141.56 153.749 145.852 149.592 146.258C148.964 145.892 155.284 136.385 155.753 135.526C160.856 138.658 159.966 135.073 162.907 140.693Z" fill="#507633"/>
<path d="M161.715 151.027C161.993 151.862 163.44 153.865 164.497 153.412C161.818 157.371 155.625 170.089 159.33 155.995C159.632 154.851 161.039 150.789 161.715 151.027Z" fill="#3B562E"/>
<path d="M157.342 128.38C159.314 132.005 157.104 133.078 155.752 135.534C155.283 136.393 148.972 145.9 149.592 146.266C153.749 145.86 160.538 141.568 162.907 140.701C163.066 140.646 164.402 140.725 165.888 139.509C166.476 139.883 166.516 140.59 166.882 141.099C164.569 143.809 160.395 147.116 161.715 151.035C161.039 150.797 159.632 154.859 159.33 156.004C155.625 170.098 161.818 157.379 164.497 153.42C167.295 152.887 171.159 154.143 172.446 156.997C173.607 159.565 173.067 162.299 172.844 164.946C172.844 164.986 172.017 165.018 172.645 165.741C173.337 165.861 173.218 165.368 173.241 165.344C174.331 164.414 175.579 161.035 175.825 160.972C176.04 160.924 178.758 163.897 178.806 164.151C178.878 164.493 178.21 170.296 178.011 171.107C176.898 175.726 172.677 179.78 173.838 180.05C179.617 176.958 180.984 170.948 181.588 164.946C181.898 165.066 183.011 165.097 183.576 165.344C184.387 166.687 186.271 173.555 186.954 173.691C196.971 167.609 193.322 172.919 194.308 177.069C194.379 177.363 194.832 177.268 195.103 177.268C195.794 196.608 197.146 215.925 197.09 235.297C194.999 235.249 192.813 235.456 190.73 235.297C190.635 233.691 190.627 230.981 190.333 229.534C189.832 227.054 173.496 200.066 172.049 198.929C170.197 197.475 160.896 201.942 158.137 202.506C168.193 212.674 176.819 224.025 185.563 235.297V236.092C182.996 235.043 180.277 235.416 177.614 235.297L178.409 235.098C170.244 223.484 160.649 212.729 150.585 202.705C149.242 201.37 149.48 200.797 149.393 200.718C152.302 184.78 153.058 168.412 157.74 152.824C144.989 155.352 140.95 156.155 146.213 142.49C147.572 138.968 153.209 131.194 151.976 130.367C151.301 129.914 147.97 131.21 148.2 129.572C154.655 129.103 154.934 123.96 157.342 128.38Z" fill="#152718"/>
<path d="M189.737 182.427C190.921 182.403 191.502 204.319 191.525 206.076C191.796 227.769 188.362 212.618 176.421 197.332C183.512 193.436 186.04 189.374 189.737 182.427Z" fill="#FEFEFC"/>
<path d="M181.589 164.938C180.984 170.94 179.617 176.95 173.838 180.042C172.677 179.772 176.898 175.718 178.011 171.099C178.21 170.288 178.878 164.485 178.806 164.144C179.808 164.931 179.935 163.746 179.999 163.746C180.134 163.746 180.261 163.746 180.396 163.746C180.197 164.462 181.207 164.795 181.589 164.938Z" fill="#3B562E"/>
<path d="M173.241 165.336C173.241 165.336 173.337 165.853 172.645 165.733C172.017 165.01 172.844 164.978 172.844 164.938L173.241 165.336Z" fill="#5B6E53"/>
<path d="M111.64 225.75C113.795 227.308 115.83 228.039 118.397 228.532C118.048 235.821 123.262 250.074 127.937 255.559C128.183 257.547 134.392 269.312 135.886 271.855H134.694C125.345 255.114 116.625 265.893 111.64 233.898C111.41 232.411 111.847 230.273 111.64 228.731C111.593 228.397 110.853 228.572 110.845 228.532C110.456 225.845 109.852 225.042 111.64 225.75Z" fill="#FEFEFC"/>
<path d="M121.577 226.545C122.714 232.944 129.773 247.817 130.719 252.579C131.268 255.329 130.846 254.622 128.732 254.367C128.541 254.343 127.547 252.443 127.937 255.56C123.262 250.075 118.055 235.822 118.397 228.532C118.461 227.125 118.938 225.758 118.596 224.16C120.218 224.327 121.164 226.259 121.577 226.545Z" fill="#FEFEFC"/>
<path d="M177.614 235.289C166.595 234.804 155.458 235.655 144.424 235.289L146.61 256.156C153.201 255.973 154.52 257.126 154.957 257.149C157.74 273.048 160.522 288.946 163.304 304.845C157.151 295.083 154.767 286.403 150.188 276.426C148.693 273.159 147.898 272.849 147.803 272.65C147.731 272.499 147.374 273.318 145.815 270.067C145.593 269.614 146.428 269.336 146.213 268.875C144.917 266.092 143.637 263.262 142.238 260.528C142.5 266.895 143.709 273.127 144.623 279.407C143.931 279.677 144.488 280.115 143.828 280.6L128.724 254.367C130.838 254.63 131.26 255.329 130.711 252.579C129.765 247.817 122.706 232.944 121.569 226.545C122.229 227.006 124.717 229.049 125.147 228.333C125.004 218.397 123.93 221.306 127.134 224.955C128.175 226.14 128.581 226.616 130.115 227.34C131.22 227.594 131.109 226.76 131.506 226.147C138.526 215.352 135.783 223.977 137.27 224.558C137.834 224.78 139.368 222.57 140.052 222.57C140.736 222.57 142.651 224.955 142.834 224.955C143.359 224.955 148.796 214.478 146.61 223.365C145.863 226.402 143.423 227.157 148.002 228.532L150.585 220.583C151.293 220.209 150.768 219.836 151.181 219.391C151.642 220.559 156.221 227.507 156.746 227.34C150.951 219.327 152.89 208.119 150.188 203.095L150.585 202.697C160.649 212.721 170.244 223.477 178.408 235.09L177.614 235.289Z" fill="#FEFEFC"/>
<path d="M150.585 220.583L148.001 228.532C143.422 227.157 145.863 226.402 146.61 223.365C147.93 221.942 148.916 221.457 150.585 220.583Z" fill="#7EA53E"/>
<path d="M131.506 226.147C131.109 226.759 131.22 227.594 130.115 227.34C128.581 226.616 128.175 226.139 127.134 224.955C128.159 225.114 129.058 223.341 129.32 223.365C129.781 223.413 130.679 225.98 131.506 226.147Z" fill="#9EC050"/>
<path d="M128.724 254.367L143.828 280.6C141.062 282.627 137.866 275.242 135.879 271.855C134.384 269.312 128.175 257.547 127.929 255.56C127.54 252.443 128.533 254.343 128.724 254.367Z" fill="#E4EFE7"/>
<path d="M131.705 242.046C133.708 244.653 138.708 250.591 139.853 252.976C143.852 261.307 130.663 242.539 131.705 242.046Z" fill="#E3E8CF"/>
<path d="M125.544 192.363C128.35 192.53 136.721 194.08 139.456 195.146C142.071 196.163 148.884 200.67 150.188 203.095C152.89 208.119 150.951 219.327 156.746 227.34C156.221 227.507 151.642 220.559 151.181 219.391C150.768 219.836 151.293 220.209 150.585 220.583C148.916 221.458 147.93 221.942 146.61 223.365C148.796 214.478 143.359 224.955 142.834 224.955C142.651 224.955 140.736 222.57 140.052 222.57C139.368 222.57 137.834 224.78 137.27 224.558C135.783 223.977 138.526 215.353 131.506 226.148C130.679 225.981 129.781 223.413 129.32 223.365C129.058 223.341 128.159 225.114 127.134 224.955C123.93 221.306 125.003 218.397 125.147 228.334C124.717 229.049 122.229 227.006 121.569 226.545C121.156 226.259 120.21 224.327 118.588 224.16C118.93 225.758 118.453 227.125 118.389 228.532C115.822 228.047 113.787 227.308 111.632 225.75C110.678 225.066 110.146 224.955 109.248 224.359C108.143 222.833 104.907 205.639 104.875 202.697C104.851 200.257 104.963 198.174 106.068 195.941C108.127 195.479 113.326 192.809 117.197 192.363C118.835 192.173 123.62 192.244 125.544 192.363Z" fill="#3B562E"/>
<path d="M149.392 200.71C149.48 200.789 149.241 201.362 150.585 202.697L150.187 203.095C148.884 200.67 142.071 196.163 139.456 195.146C142.961 195.694 146.841 198.309 149.392 200.71Z" fill="#B7BD83"/>
<path d="M106.076 195.941C104.971 198.174 104.859 200.257 104.883 202.697C104.605 200.957 100.877 199.136 99.5173 199.12C95.002 199.057 99.7399 202.3 97.9274 204.287C93.1418 196.791 81.9965 200.631 89.9779 208.659C78.1172 205.472 76.5829 217.483 75.6687 217.801C75.1917 217.968 71.2488 211.45 69.9053 220.782C65.223 221.513 67.7828 225.583 70.3028 227.936C69.8417 228.524 59.714 225.965 65.5331 237.475C63.975 238.199 62.1307 241.076 61.9558 242.642C61.4311 247.364 63.4026 241.688 64.7381 244.232C66.5983 247.785 63.0051 256.394 72.0914 254.367C80.3271 252.523 72.0994 245.186 82.4258 249.598C81.3129 239.796 86.5437 244.447 87.593 244.033C88.3641 243.731 91.2657 236.227 91.9652 234.892C99.0244 239.661 94.4932 233.517 100.511 232.904C104.653 242.698 102.634 235.17 97.7287 238.071C97.6492 238.119 96.3772 238.262 96.1387 239.065C94.7317 243.866 100.312 246.045 92.164 242.642L94.5488 248.207C93.1736 247.269 91.687 247.261 90.1766 246.816C90.0733 246.784 88.4357 245.361 88.1892 245.822C90.0494 258.08 82.4894 249.272 81.4321 251.386C82.2907 251.577 82.2748 251.991 82.6245 252.38C81.2493 261.871 77.2666 254.789 76.2649 256.553C76.1218 258.016 76.1218 261.259 75.8674 262.317C75.6687 263.127 75.6528 264.161 75.47 264.701C72.4094 273.692 60.3579 258.406 62.7507 253.374C53.4339 247.428 58.6567 237.587 58.3785 236.68C58.1638 235.981 50.9218 232.817 59.5709 224.757C58.5375 219.208 60.1751 218.143 64.7381 216.211C65.8351 215.75 66.2803 216.569 66.7255 216.012C68.8003 202.069 92.4025 198.993 103.691 196.338C106.02 195.79 105.956 195.964 106.076 195.941Z" fill="#9EC050"/>
<path d="M104.883 202.698C104.915 205.639 108.151 222.833 109.256 224.359C110.154 224.955 110.687 225.067 111.64 225.75C109.852 225.043 110.456 225.846 110.846 228.533C111.672 229.59 109.613 230.568 108.858 231.315C106.887 229.336 106.783 230.544 105.678 233.302C105.336 233.302 105.273 232.992 104.883 232.905C103.421 232.579 102.045 231.975 100.71 231.315L100.511 232.905C94.4933 233.517 99.0246 239.662 91.9654 234.892C91.2658 236.227 88.3642 243.732 87.5931 244.034C86.5438 244.447 81.313 239.797 82.4259 249.598C72.0995 245.186 80.3273 252.523 72.0916 254.368C63.0052 256.403 66.5984 247.786 64.7382 244.232C63.4027 241.689 61.4312 247.364 61.9559 242.643C62.1308 241.077 63.9751 238.199 65.5332 237.476C59.7141 225.965 69.8418 228.525 70.3029 227.936C67.7829 225.583 65.2232 221.513 69.9054 220.782C71.2489 211.45 75.1919 217.968 75.6688 217.801C76.583 217.483 78.1173 205.472 89.978 208.66C81.9967 200.631 93.1419 196.791 97.9275 204.288C99.74 202.3 95.0021 199.057 99.5174 199.121C100.877 199.136 104.605 200.957 104.883 202.698Z" fill="#424D29"/>
<path d="M108.858 231.315C108.699 231.474 108.413 234.264 105.678 233.302C106.783 230.544 106.887 229.335 108.858 231.315Z" fill="#C4D65D"/>
<path d="M209.809 306.832C210.517 310.902 212.154 315.361 213.784 319.153L205.834 318.756C205 318.112 204.745 316.22 204.642 315.179C203.958 308.024 201.248 299.018 207.424 288.747C212.91 279.63 209.173 290.663 209.014 294.312C208.847 298.135 209.157 303.056 209.809 306.832Z" fill="#7EA53E"/>
<path d="M269.43 218.198C269.677 218.127 270.941 216.648 272.213 216.211C272.253 240.488 263.15 257.539 250.55 277.42C250.86 266.983 258.214 258.938 262.276 249.796C266.577 240.122 270.464 228.826 269.43 218.198Z" fill="#FEFEFC"/>
<path d="M273.803 154.604C277.523 157.752 274.828 164.485 270.623 166.727C271.648 171.099 266.958 178.301 263.071 173.285C262.801 172.935 261.767 171.862 261.878 171.497C275.607 163.73 268.882 162.697 268.636 161.958C267.92 159.819 271.609 155.384 273.803 154.604Z" fill="#507633"/>
<path d="M278.175 212.634C279.105 215.933 278.167 217.165 278.175 217.403C276.99 218.524 275.663 217.435 274.598 217.006C276.227 216.203 276.355 212.729 276.585 212.435C276.983 211.942 276.768 213.111 278.175 212.634Z" fill="#9EC050"/>
<path d="M282.945 143.078C282.969 143.205 282.921 143.348 282.945 143.475C283.032 143.881 282.667 146.329 284.137 151.623C286.53 160.256 290.72 168.523 292.882 177.26C290.028 177.967 285.942 179.008 284.137 181.632C283.215 177.975 277.293 181.29 275.592 183.619C273.032 181.703 268.668 181.123 267.841 184.811C263.135 184.167 258.429 185.066 253.73 185.606C251.878 187.737 244.724 197.61 244.39 198.325C239.23 199.819 234.707 203.452 230.478 206.672C225.486 210.479 222.544 212.912 218.951 218.198C212.401 227.84 212.091 229.788 221.336 229.327C221.614 229.311 222.807 228.635 223.522 228.532C227.807 235.09 238.547 231.839 233.658 224.16C234.365 224.088 236.321 224.049 236.838 224.16C240.637 224.987 239.874 231.155 251.147 222.371C250.9 221.847 249.994 220.686 249.954 220.583C246.838 212.498 248.15 218.699 258.699 219.39C261.561 224.478 261.616 220.511 263.469 219.39C265.734 218.015 266.521 218.325 268.238 217.801C268.302 217.785 268.238 218.548 269.431 218.198C270.464 228.826 266.577 240.114 262.276 249.796C258.214 258.938 250.861 266.974 250.551 277.42C263.151 257.547 272.253 240.496 272.213 216.211H272.61C273.191 216.465 273.978 216.751 274.598 217.006C275.663 217.435 276.991 218.524 278.175 217.403C278.175 217.443 278.962 217.276 278.97 217.602C279.081 222.975 278.382 233.969 276.983 239.065C276.442 241.028 274.32 243.039 275.79 244.033C265.615 265.448 255.503 270.639 247.172 284.773C243.603 290.83 240.264 303.278 243.197 287.555C253.11 256.116 248.476 266.291 237.831 290.138L234.85 286.959C236.241 276.863 238.579 266.847 240.017 256.752C241.536 256.72 249 256.998 249.557 256.553C250.548 249.468 251.542 242.38 252.538 235.289C237.235 235.631 221.924 235.011 206.629 234.891C207.146 228.524 218.307 189.096 221.733 187.395C222.497 186.536 222.862 189.207 225.112 190.773C234.429 197.26 249.684 192.753 254.525 182.427C261.163 186.417 263.993 179.477 263.071 173.285C266.958 178.301 271.649 171.107 270.623 166.727C274.828 164.485 277.523 157.752 273.803 154.604C286.172 150.081 278.127 138.388 282.945 143.078Z" fill="#FEFEFC"/>
<path d="M252.935 255.559C253.198 255.686 252.594 259.526 252.339 260.13C250.765 263.85 248.349 261.561 252.935 255.559Z" fill="#B8CD99"/>
<path d="M277.778 257.944C276.156 259.709 273.938 263.318 272.611 265.496C270.623 266.847 269.002 268.453 267.046 269.868C266.243 266.005 274.018 260.258 277.778 257.944Z" fill="#DDECDA"/>
<path d="M328.257 236.084C329.139 235.941 329.934 236.219 329.847 237.277C327.001 244.32 319.886 259.161 314.743 251.983C315.593 249.01 315.546 244.216 315.538 241.052C314.918 239.288 310.323 246.045 309.973 240.257C308.836 239.097 306.769 240.273 307.588 237.277C308.359 235.536 309.552 233.89 309.973 231.911C308.192 229.447 304.575 238.763 304.806 224.359C298.375 225.997 302.27 223.683 302.023 220.186C305.855 214.852 304.615 223.532 306.992 223.763C307.135 223.779 308.025 222.57 308.184 222.57C309.48 222.57 310.299 227.594 313.55 225.154C313.813 237.292 313.685 229.971 316.531 230.917C318.527 231.577 319.504 244.471 319.711 246.816C320.689 247.61 327.812 237.682 328.257 236.084Z" fill="#9EC050"/>
<path d="M322.295 189.581C322.39 189.74 322.732 191.831 322.692 192.562C323.217 193.405 330.037 195.122 329.052 202.498C338.512 211.346 331.635 217.888 331.834 218.794C331.977 219.47 338.814 221.577 331.437 230.321C331.969 234.335 330.618 235.376 329.847 237.276C329.934 236.219 329.139 235.941 328.257 236.084C329.608 231.243 326.412 231.64 327.064 230.321C327.303 229.836 333.114 228.278 326.667 221.577C333.646 217.984 326.762 210.805 320.705 209.653C321.897 209.422 326.81 207.443 326.667 206.076C321.476 201.696 319.743 195.948 312.159 198.325C310.99 198.691 301.228 203.993 310.172 197.928C311.269 197.18 315.935 195.241 316.531 194.748C322.136 190.09 312.564 186.044 301.825 191.171C313.025 181.306 304.957 178.929 295.067 184.414C293.263 172.562 280.679 186.656 284.137 181.632C285.941 179.009 290.027 177.967 292.881 177.26C305.791 174.04 315.371 178.174 322.295 189.581Z" fill="#9EC050"/>
<path d="M328.257 236.084C327.812 237.682 320.689 247.61 319.711 246.816C319.504 244.471 318.527 231.577 316.531 230.917C313.685 229.971 313.812 237.292 313.55 225.154C310.299 227.594 309.48 222.57 308.184 222.57C308.025 222.57 307.135 223.779 306.992 223.763C304.615 223.532 305.855 214.852 302.023 220.186C301.88 218.127 301.427 217.706 299.638 218.198C299.44 212.594 298.454 214.931 295.266 217.403C295.067 215.949 294.829 214.494 294.67 213.031L288.31 217.403L284.733 210.647C283.962 210.591 283.127 215.75 282.944 216.609C281.736 215.178 280.655 213.596 279.367 212.236C278.811 211.648 278.978 209.987 277.579 211.839C276.14 211.561 277.658 195.249 267.84 184.812C268.667 181.123 273.031 181.704 275.591 183.619C277.292 181.29 283.215 177.975 284.137 181.632C280.679 186.656 293.263 172.562 295.067 184.414C304.957 178.929 313.025 181.306 301.825 191.171C312.564 186.044 322.136 190.09 316.531 194.748C315.935 195.241 311.269 197.181 310.172 197.928C301.22 203.993 310.99 198.691 312.159 198.325C319.743 195.949 321.476 201.696 326.667 206.076C326.81 207.443 321.897 209.422 320.705 209.653C326.762 210.806 333.647 217.984 326.667 221.577C333.114 228.278 327.303 229.836 327.064 230.321C326.412 231.641 329.608 231.243 328.257 236.084Z" fill="url(#paint5_linear_111_149)"/>
<path d="M230.478 206.672C234.585 207.864 238.693 209.057 242.8 210.249C242.959 211.791 245.018 221.545 245.781 221.775L249.954 220.583C249.994 220.686 250.9 221.847 251.147 222.372C239.874 231.155 240.638 224.987 236.838 224.16L229.484 208.659L227.696 226.545C225.43 227.38 223.578 228.636 220.939 228.532C218.697 226.219 217.989 221.179 218.951 218.198C222.544 212.912 225.486 210.48 230.478 206.672Z" fill="#80B365"/>
<path d="M244.389 198.325C242.434 202.506 242.346 205.789 242.799 210.249C238.692 209.057 234.585 207.864 230.478 206.672C234.699 203.452 239.23 199.82 244.389 198.325Z" fill="#6B8F3C"/>
<path d="M236.837 224.16C236.321 224.049 234.365 224.089 233.657 224.16C230.7 224.454 228.323 226.314 227.695 226.545L229.484 208.659L236.837 224.16Z" fill="#152718"/>
<path d="M233.658 224.16C238.547 231.839 227.807 235.09 223.522 228.532C222.807 228.636 221.614 229.311 221.336 229.327C221.272 229.12 220.97 228.564 220.938 228.532C223.578 228.636 225.43 227.38 227.696 226.545C228.324 226.314 230.7 224.454 233.658 224.16Z" fill="#9EC050"/>
<path d="M220.938 228.532C220.938 228.532 221.272 229.12 221.336 229.327C212.091 229.788 212.401 227.841 218.951 218.198C217.989 221.179 218.689 226.219 220.938 228.532Z" fill="#1A2016"/>
<path d="M263.469 219.391C261.624 220.512 261.561 224.478 258.699 219.391C254.271 211.529 260.956 216.497 263.469 219.391Z" fill="#9EC050"/>
<path d="M267.84 184.811C277.658 195.249 276.14 211.56 277.579 211.839C278.978 209.987 278.811 211.648 279.367 212.236C277.825 211.203 278.262 212.602 278.175 212.634C276.768 213.111 276.982 211.942 276.585 212.435C276.354 212.729 276.227 216.203 274.597 217.006C273.977 216.751 273.19 216.465 272.61 216.211C268.603 214.454 265.09 210.654 268.238 217.801C266.521 218.325 265.734 218.015 263.468 219.39C260.956 216.497 254.27 211.529 258.698 219.39C248.149 218.699 246.838 212.499 249.954 220.583L245.78 221.775C245.017 221.545 242.958 211.791 242.799 210.249C242.346 205.789 242.434 202.506 244.389 198.325C244.723 197.61 251.878 187.737 253.73 185.606C258.428 185.066 263.134 184.168 267.84 184.811Z" fill="#243C22"/>
<path d="M272.61 216.211H272.213C270.941 216.648 269.677 218.126 269.43 218.198C268.246 218.548 268.301 217.785 268.238 217.8C265.09 210.654 268.604 214.454 272.61 216.211Z" fill="#C9DE9D"/>
<path d="M299.639 218.198C298.677 218.46 295.68 221.155 295.465 220.98C294.996 219.851 295.426 218.556 295.267 217.403C298.454 214.931 299.44 212.594 299.639 218.198Z" fill="#9EC050"/>
<path d="M230.478 66.7734C230.693 67.2981 231.408 70.2552 230.876 70.9468C239.246 72.0199 239.795 79.9612 233.658 84.8579C240.471 86.9724 241.178 94.3811 241.806 94.5957C246.027 91.6306 251.886 87.4414 256.91 86.249C260.209 85.4621 271.219 84.8579 273.405 87.8389C273.572 88.6179 273.254 89.8023 273.405 90.6211C274.097 94.4049 275.584 92.052 276.188 94.5957C270.369 91.885 272.491 98.0377 263.667 96.9805C258.071 96.3127 257.928 87.6163 252.14 91.8135C251.982 91.9327 250.781 93.4908 250.749 93.6021C249.056 100.073 259.836 101.313 246.576 98.9678C244.39 101.853 240.82 103.61 240.812 105.128C240.804 106.456 246.091 109.715 239.223 115.065C246.186 114.357 247.355 120.796 244.39 125.796C240.963 131.56 237.482 128.308 233.658 128.38C231.853 128.412 226.909 129.699 225.112 130.367C219.937 132.291 214.849 137.832 214.976 133.746C215.056 131.027 240.343 124.58 240.017 119.04C239.731 114.127 224.444 117.315 221.535 118.443C217.6 119.97 213.569 124.668 212.989 121.822C212.035 117.14 236.718 115.764 234.85 107.513C233.125 99.8899 214.364 109.62 213.188 109.699C209.952 109.906 210.239 108.34 213.983 106.52C217.481 104.818 228.348 103.34 231.472 100.955C237.601 96.2809 230.279 90.3667 218.752 94.5957C215.597 95.7563 210.469 100.74 209.809 98.769C207.726 92.5607 236.885 89.3015 232.465 80.4858C229.349 74.2616 208.188 84.8897 206.828 85.0566C202.464 85.5813 209.746 81.5033 211.598 80.6846C214.412 79.4445 220.843 78.276 223.92 76.3125C234.811 69.3728 219.269 66.7178 210.803 68.3633C208.052 68.8959 205.676 71.1455 203.052 70.9468C201.47 68.88 218.848 65.9706 222.926 62.0039C226.138 58.8799 220.239 59.325 219.746 57.4331C219.436 56.2407 222.926 53.9037 218.951 51.6699L220.939 48.0928C225.677 51.5109 231.798 57.2105 228.093 63.395C229.039 64.3171 229.977 65.5493 230.478 66.7734Z" fill="#9EC050"/>
<path d="M209.809 51.2726C209.579 51.519 205.421 54.3172 204.642 55.6447C201.566 55.6049 198.457 57.012 196.096 56.8371C191.009 58.4269 186.04 60.1439 180.794 61.2091C179.323 61.5033 175.523 62.7672 175.03 62.799C170.07 63.109 161.985 60.923 164.895 54.4523C164.99 54.2377 165.197 53.7766 165.292 53.6574C178.027 61.0025 182.558 49.5953 183.377 48.8879C186.255 46.4077 187.487 49.2853 187.749 49.2853C188.099 49.2853 191.255 44.4124 192.917 44.5158C195.619 44.6907 190.834 51.2567 198.879 44.9132C199.88 50.4538 201.494 45.6923 204.443 45.7082C207.13 45.7161 205.135 47.7352 206.033 48.4904C206.812 49.1422 215.97 44.5635 209.809 51.2726Z" fill="#3C3228"/>
<path d="M220.939 48.0927L218.951 51.6699C216.741 50.4298 212.409 50.7 209.809 51.2724C215.97 44.5632 206.82 49.142 206.033 48.4902C205.135 47.735 207.13 45.7159 204.443 45.7079C201.494 45.692 199.88 50.4536 198.879 44.913C190.834 51.2565 195.619 44.6904 192.917 44.5156C191.255 44.4122 188.099 49.2851 187.749 49.2851C187.487 49.2851 186.255 46.4075 183.377 48.8876C182.558 49.5951 178.027 61.0022 165.292 53.6572C166.834 51.7493 169.092 51.5745 171.453 51.6699C172.28 47.1308 185.651 39.2532 187.749 44.5156C195.953 37.3136 212.87 42.2659 220.939 48.0927Z" fill="#7EA53E"/>
<path d="M164.894 54.4521C161.985 60.9228 170.07 63.1088 175.03 62.7988C175.523 62.767 179.323 61.5031 180.793 61.209C181.239 63.7845 179.871 62.306 178.21 65.1836C174.656 65.748 160.459 61.5746 161.317 67.9658C160.594 67.9499 158.988 67.5763 158.535 67.1709C154.337 63.403 160.792 55.6604 164.894 54.4521Z" fill="#9EC050"/>
<path d="M204.642 55.6444C211.908 57.115 209.181 58.7923 211.598 60.0165C216.193 62.3456 225.995 58.7128 222.926 62.0038C218.856 65.9704 201.47 68.8798 203.052 70.9466C205.676 71.1454 208.053 68.8957 210.803 68.3631C219.269 66.7176 234.811 69.3727 223.92 76.3123C220.843 78.2758 214.412 79.4443 211.598 80.6844C209.746 81.5032 202.464 85.5811 206.828 85.0565C208.188 84.8975 229.349 74.2615 232.466 80.4857C236.885 89.3014 207.727 92.5606 209.809 98.7689C210.469 100.74 215.597 95.7561 218.753 94.5956C230.279 90.3666 237.593 96.2808 231.472 100.955C228.348 103.34 217.481 104.818 213.983 106.519C210.239 108.34 209.952 109.906 213.188 109.699C214.364 109.62 233.125 99.8897 234.85 107.513C236.719 115.764 212.035 117.14 212.989 121.822C213.569 124.667 217.6 119.969 221.535 118.443C224.444 117.314 239.731 114.127 240.018 119.039C240.344 124.58 215.064 131.027 214.977 133.745C214.849 137.831 219.937 132.291 225.112 130.367C226.909 129.699 231.853 128.412 233.658 128.38C243.611 130.152 235.566 136.114 230.677 138.714C226.503 140.932 221.694 140.908 218.554 144.676C217.926 145.431 214.221 150.677 216.765 151.035C217.894 151.194 226.432 139.604 236.44 150.638C236.313 150.797 236.575 151.878 236.44 152.029C233.483 155.359 224.961 160.272 220.74 162.164C219.444 162.744 217.346 162.45 217.163 162.561C216.71 162.832 217.123 163.865 216.964 164.151C216.94 164.199 216.248 164.008 216.169 164.35C215.803 165.948 216.988 165.821 216.964 165.94C216.074 171.282 214.317 176.616 213.784 182.037L212.194 182.434C212.902 179.62 213.156 176.631 214.182 173.889L213.585 172.895L194.904 171.703C194.252 173.579 195.039 175.423 195.103 177.267C194.832 177.267 194.379 177.363 194.308 177.069C193.322 172.919 196.971 167.609 186.954 173.69C186.271 173.555 184.387 166.687 183.576 165.344C183.488 165.201 184.379 164.58 183.377 164.151C183.242 164.096 180.547 163.754 180.396 163.754C180.261 163.754 180.134 163.754 179.999 163.754C178.846 162.442 173.138 152.315 173.242 151.631C173.798 147.998 185.547 152.227 187.948 151.631C182.058 148.881 168.416 148.3 168.472 140.9C172.629 141.401 175.078 138.666 179.8 138.316C181.04 138.221 194.745 139.54 185.762 136.726C183.091 135.892 161.413 134.564 162.51 128.181C162.661 127.299 164.974 124.858 165.888 124.405C173.567 120.566 188.584 127.442 188.346 123.809C188.211 121.814 167.057 120.892 162.112 118.046C161.055 117.434 159.179 115.804 158.932 114.667C156.77 104.588 173.257 114.492 185.166 111.09C179.132 111.774 156.071 107.227 158.137 98.3714C159.433 92.8149 174.45 99.8579 178.607 100.557C193.386 103.03 161.063 94.5161 160.522 89.4286C160.498 89.1901 160.475 88.8483 160.522 88.6336C161.715 83.4666 174.513 87.0199 177.813 88.2362C180.237 89.1344 185.301 93.6496 184.371 89.6273C183.258 84.7862 162.136 85.8196 160.92 81.2806C157.843 69.8417 181.366 77.9817 182.582 77.5047C183.552 77.1232 184.045 75.748 182.98 74.7225C181.732 73.5222 163.368 71.2805 161.715 69.1581C161.675 69.1104 161.325 68.0531 161.317 67.9657C160.459 61.5745 174.657 65.7478 178.21 65.1834C179.871 62.3058 181.239 63.7844 180.794 61.2088C186.04 60.1436 191.009 58.4266 196.096 56.8368C198.457 57.0116 201.566 55.6046 204.642 55.6444Z" fill="url(#paint6_linear_111_149)"/>
<path d="M162.112 118.046C167.056 120.892 188.21 121.814 188.345 123.809C188.584 127.442 173.567 120.566 165.888 124.405C164.974 124.858 162.66 127.299 162.509 128.181C161.412 134.556 183.091 135.892 185.762 136.727C194.745 139.541 181.04 138.221 179.8 138.316C175.078 138.666 172.629 141.401 168.471 140.9C168.416 148.301 182.057 148.881 187.948 151.631C185.547 152.228 173.798 147.999 173.241 151.631C173.138 152.315 178.838 162.442 179.998 163.754C179.935 163.754 179.808 164.938 178.806 164.151C178.758 163.897 176.039 160.924 175.825 160.972C175.578 161.035 174.33 164.414 173.241 165.344L172.844 164.946C173.066 162.299 173.607 159.565 172.446 156.997C176.461 159.263 167.899 142.522 166.882 141.099C166.516 140.59 166.476 139.882 165.888 139.509C164.401 140.725 163.074 140.638 162.907 140.701C159.965 135.081 160.856 138.666 155.752 135.534C157.104 133.078 159.314 132.005 157.342 128.38C158.463 126.583 152.032 124.127 156.15 122.021C158.439 124.294 157.445 121.663 160.323 122.021C160.967 121.52 160.045 121.178 160.124 120.828C160.498 119.111 160.299 118.65 159.33 117.052C160.403 117.052 161.094 119.421 162.112 118.046Z" fill="#9EC050"/>
<path d="M160.125 120.828C160.045 121.178 160.967 121.52 160.323 122.021C157.446 121.663 158.439 124.294 156.15 122.021C156.047 121.917 156.245 121.098 154.56 119.636C152.382 113.38 159.608 115.741 160.125 120.828Z" fill="#264822"/>
<path d="M218.951 51.6698C222.926 53.9035 219.436 56.2406 219.746 57.4329C220.239 59.3249 226.138 58.8797 222.926 62.0037C225.995 58.7128 216.193 62.3456 211.598 60.0164C209.181 58.7923 211.908 57.115 204.642 55.6444C205.421 54.3168 209.579 51.5187 209.809 51.2723C212.401 50.7 216.741 50.4297 218.951 51.6698Z" fill="#3B562E"/>
<path d="M160.522 88.6338C159.552 87.1552 157.708 87.4017 154.958 84.2617C152.724 81.7021 151.134 78.8404 152.175 75.3188C153.439 71.0581 158.344 70.4301 161.715 69.1582C163.368 71.2806 181.732 73.5223 182.98 74.7227C184.045 75.7481 183.552 77.1233 182.582 77.5049C181.366 77.9818 157.851 69.8418 160.92 81.2808C162.136 85.8198 183.25 84.7864 184.371 89.6274C185.301 93.6497 180.237 89.1346 177.812 88.2363C174.513 87.0201 161.715 83.4668 160.522 88.6338Z" fill="#9EC050"/>
<path d="M183.576 165.336C183.012 165.09 181.899 165.058 181.589 164.938C181.207 164.795 180.198 164.462 180.396 163.746C180.547 163.746 183.242 164.088 183.377 164.144C184.379 164.573 183.489 165.193 183.576 165.336Z" fill="#CED695"/>
<path d="M224.516 169.311C223.228 170.447 218.474 172.896 216.566 174.08C217.107 171.163 217.21 167.148 216.964 164.144C217.123 163.857 216.709 162.824 217.163 162.554C217.345 162.442 219.444 162.737 220.74 162.156C224.961 160.264 233.483 155.352 236.44 152.021C236.575 151.87 236.313 150.789 236.44 150.63C237.863 148.905 239.731 147.53 240.812 145.463C249.255 152.132 231.671 161.6 226.702 165.733C224.874 167.26 224.675 169.175 224.516 169.311Z" fill="#9EC050"/>
<path d="M240.812 145.463C239.731 147.53 237.863 148.905 236.44 150.63C226.431 139.596 217.894 151.186 216.765 151.027C214.221 150.67 217.925 145.423 218.553 144.668C224.977 141.488 231.403 138.309 237.831 135.129C237.863 140.773 242.076 134.811 243.197 138.11C243.507 139.032 241.369 144.39 240.812 145.463Z" fill="#9EC050"/>
<path d="M216.964 164.143C217.21 167.148 217.107 171.162 216.567 174.08C216.495 174.485 214.738 179.628 214.182 182.029H213.784C214.317 176.608 216.074 171.274 216.964 165.932C216.988 165.813 215.803 165.94 216.169 164.342C216.249 164 216.94 164.191 216.964 164.143Z" fill="#2D2A1E"/>
<defs>
<linearGradient id="paint0_linear_111_149" x1="78.9439" y1="91.861" x2="157.879" y2="181.754" gradientUnits="userSpaceOnUse">
<stop stop-color="#40472D"/>
<stop offset="1" stop-color="#35251E"/>
</linearGradient>
<linearGradient id="paint1_linear_111_149" x1="130.242" y1="287.15" x2="128.525" y2="330.044" gradientUnits="userSpaceOnUse">
<stop stop-color="#7DA94B"/>
<stop offset="1" stop-color="#2C4A32"/>
</linearGradient>
<linearGradient id="paint2_linear_111_149" x1="272.491" y1="282.722" x2="276.187" y2="327.476" gradientUnits="userSpaceOnUse">
<stop stop-color="#82AE4E"/>
<stop offset="1" stop-color="#2C4D33"/>
</linearGradient>
<linearGradient id="paint3_linear_111_149" x1="194.005" y1="301.371" x2="195.69" y2="343.47" gradientUnits="userSpaceOnUse">
<stop stop-color="#729C46"/>
<stop offset="1" stop-color="#1B3423"/>
</linearGradient>
<linearGradient id="paint4_linear_111_149" x1="194.427" y1="241.648" x2="183.592" y2="296.625" gradientUnits="userSpaceOnUse">
<stop stop-color="#5A212C"/>
<stop offset="1" stop-color="#3C1E20"/>
</linearGradient>
<linearGradient id="paint5_linear_111_149" x1="278.079" y1="183.476" x2="328.334" y2="229.234" gradientUnits="userSpaceOnUse">
<stop stop-color="#383D27"/>
<stop offset="1" stop-color="#425628"/>
</linearGradient>
<linearGradient id="paint6_linear_111_149" x1="164.394" y1="116.814" x2="231.48" y2="120.2" gradientUnits="userSpaceOnUse">
<stop stop-color="#3B2D27"/>
<stop offset="1" stop-color="#353329"/>
</linearGradient>
</defs>
</svg>
