<svg width="20" height="22" viewBox="0 0 20 22" fill="none" xmlns="http://www.w3.org/2000/svg">
<path d="M11.4049 3.01039C11.6246 2.41863 12.0119 1.9098 12.5157 1.55093C13.0196 1.19206 13.6164 0.999978 14.2275 1M19 15.7974C17.8117 18.809 15.6547 21 13.8495 21H7.04685C4.40135 21 1 16.2941 1 11.1961C1.00001 10.0605 1.31678 8.94924 1.91206 7.99637C2.50734 7.04351 3.35569 6.2898 4.3547 5.82622C5.35371 5.36265 6.46068 5.20902 7.54199 5.3839C8.62329 5.55877 9.6327 6.05466 10.4484 6.81172C11.0258 6.27583 11.7029 5.86825 12.438 5.6145C13.1731 5.36074 13.9505 5.26602 14.7223 5.33617C15.4941 5.40632 16.2438 5.63986 16.9252 6.02237C17.6066 6.40488 18.2052 6.92824 18.6841 7.56015C17.9899 7.9958 17.4209 8.61666 17.0365 9.35802C16.6522 10.0994 16.4664 10.9341 16.4986 11.7753C16.5308 12.6165 16.7799 13.4333 17.2197 14.1407C17.6596 14.848 18.2747 15.4203 19 15.7974Z" stroke="#04BF55" stroke-width="2" stroke-linecap="round" stroke-linejoin="round"/>
</svg>
