<svg width="19" height="21" viewBox="0 0 19 21" fill="none" xmlns="http://www.w3.org/2000/svg">
<path d="M9.75 13.625C9.75 13.8321 9.58211 14 9.375 14C9.16789 14 9 13.8321 9 13.625M5.875 7.75V4.375C5.875 3.47989 6.23058 2.62145 6.86351 1.98851C7.49645 1.35558 8.35489 1 9.25 1C10.1451 1 11.0035 1.35558 11.6365 1.98851C12.2694 2.62145 12.625 3.47989 12.625 4.375V7.75M10.5 13.625C10.5 14.2463 9.99632 14.75 9.375 14.75C8.75368 14.75 8.25 14.2463 8.25 13.625C8.25 13.0037 8.75368 12.5 9.375 12.5C9.99632 12.5 10.5 13.0037 10.5 13.625ZM1.75 7.75H16.75C17.1642 7.75 17.5 8.08579 17.5 8.5V19C17.5 19.4142 17.1642 19.75 16.75 19.75H1.75C1.33579 19.75 1 19.4142 1 19V8.5C1 8.08579 1.33579 7.75 1.75 7.75Z" stroke="#9E9E9E" stroke-width="1.5" stroke-linecap="round" stroke-linejoin="round"/>
</svg>
