<svg width="18" height="20" viewBox="0 0 18 20" fill="none" xmlns="http://www.w3.org/2000/svg">
<path d="M10.75 11.8747L12.25 10.7497V15.6247M5.875 10.7497H8.5L7 12.6247C7.24664 12.6247 7.48947 12.6855 7.70699 12.8018C7.92452 12.918 8.11002 13.0861 8.24708 13.2911C8.38413 13.4962 8.46851 13.7319 8.49274 13.9773C8.51697 14.2228 8.48031 14.4704 8.38599 14.6983C8.29168 14.9262 8.14263 15.1273 7.95203 15.2838C7.76144 15.4404 7.53518 15.5475 7.29331 15.5957C7.05143 15.644 6.80139 15.6318 6.56534 15.5603C6.32928 15.4889 6.11449 15.3603 5.93999 15.186M1 7H17.5M13.75 1V4M4.75 1V4M1.75 2.5H16.75C17.1642 2.5 17.5 2.83579 17.5 3.25V18.25C17.5 18.6642 17.1642 19 16.75 19H1.75C1.33579 19 1 18.6642 1 18.25V3.25C1 2.83579 1.33579 2.5 1.75 2.5Z" stroke="#9E9E9E" stroke-linecap="round" stroke-linejoin="round"/>
</svg>
