<svg width="130" height="130" viewBox="0 0 130 130" fill="none" xmlns="http://www.w3.org/2000/svg">
<path d="M21.2204 111.011C20.7197 111.996 21.1118 113.2 22.0964 113.7C23.0809 114.201 24.285 113.809 24.7857 112.824L21.2204 111.011ZM105.075 112.824C105.575 113.809 106.779 114.201 107.764 113.7C108.748 113.2 109.141 111.995 108.64 111.011L105.075 112.824ZM129.165 57.5593C129.034 56.4625 128.039 55.6794 126.942 55.8101C125.845 55.9408 125.062 56.9359 125.193 58.0327L129.165 57.5593ZM127.624 65.3062L125.624 65.3057V65.3062H127.624ZM64.9302 2.6123V0.612305V2.6123ZM70.5635 4.87013C71.6633 4.97201 72.6376 4.16299 72.7394 3.06313C72.8413 1.96327 72.0323 0.989063 70.9324 0.88718L70.5635 4.87013ZM24.7857 112.824C28.5538 105.416 34.2985 99.1948 41.3837 94.8495L39.2925 91.4397C31.578 96.171 25.3232 102.945 21.2204 111.011L24.7857 112.824ZM41.3837 94.8495C48.469 90.5041 56.6185 88.2041 64.9301 88.2041L64.9301 84.2041C55.8803 84.2041 47.007 86.7084 39.2925 91.4397L41.3837 94.8495ZM64.9301 88.2041C73.2417 88.2041 81.3913 90.5041 88.4765 94.8494L90.5677 91.4396C82.8532 86.7083 73.9799 84.2041 64.9301 84.2041L64.9301 88.2041ZM88.4765 94.8494C95.5618 99.1947 101.306 105.416 105.075 112.824L108.64 111.011C104.537 102.945 98.2823 96.1708 90.5677 91.4396L88.4765 94.8494ZM89.0527 60.0817C89.0527 73.4041 78.2526 84.2041 64.9301 84.2041V88.2041C80.4617 88.2041 93.0527 75.6133 93.0527 60.0817H89.0527ZM64.9301 84.2041C51.6077 84.2041 40.8078 73.4041 40.8078 60.0817H36.8078C36.8078 75.6133 49.3985 88.2041 64.9301 88.2041V84.2041ZM40.8078 60.0817C40.8078 46.7592 51.6078 35.9592 64.9302 35.9592V31.9592C49.3986 31.9592 36.8078 44.5501 36.8078 60.0817H40.8078ZM64.9302 35.9592C78.2527 35.9592 89.0527 46.7592 89.0527 60.0817H93.0527C93.0527 44.5501 80.4618 31.9592 64.9302 31.9592V35.9592ZM125.193 58.0327C125.481 60.4464 125.625 62.875 125.624 65.3057L129.624 65.3066C129.625 62.7174 129.471 60.1304 129.165 57.5593L125.193 58.0327ZM125.624 65.3062C125.624 77.3103 122.064 89.0448 115.395 99.0259L118.721 101.248C125.83 90.6093 129.624 78.1014 129.624 65.3062H125.624ZM115.395 99.0259C108.726 109.007 99.2471 116.786 88.1567 121.38L89.6875 125.076C101.509 120.179 111.613 111.887 118.721 101.248L115.395 99.0259ZM88.1567 121.38C77.0664 125.974 64.8629 127.176 53.0894 124.834L52.3091 128.757C64.8584 131.253 77.8662 129.972 89.6875 125.076L88.1567 121.38ZM53.0894 124.834C41.316 122.492 30.5014 116.711 22.0132 108.223L19.1847 111.052C28.2323 120.099 39.7597 126.261 52.3091 128.757L53.0894 124.834ZM22.0132 108.223C13.525 99.735 7.74446 88.9204 5.40257 77.1469L1.47943 77.9273C3.97566 90.4767 10.1371 102.004 19.1847 111.052L22.0132 108.223ZM5.40257 77.1469C3.06069 65.3735 4.26263 53.17 8.8564 42.0796L5.16088 40.5489C0.264358 52.3702 -1.0168 65.3779 1.47943 77.9273L5.40257 77.1469ZM8.8564 42.0796C13.4502 30.9893 21.2295 21.5102 31.2105 14.8411L28.9882 11.5152C18.3494 18.6238 10.0574 28.7276 5.16088 40.5489L8.8564 42.0796ZM31.2105 14.8411C41.1916 8.17194 52.9261 4.6123 64.9302 4.6123V0.612305C52.135 0.612305 39.6271 4.40653 28.9882 11.5152L31.2105 14.8411ZM64.9302 4.6123C66.8314 4.6123 68.7091 4.69835 70.5635 4.87013L70.9324 0.88718C68.9531 0.703826 66.9522 0.612305 64.9302 0.612305V4.6123Z" fill="#04BF55"/>
</svg>
