<svg width="22" height="17" viewBox="0 0 22 17" fill="none" xmlns="http://www.w3.org/2000/svg">
<path d="M21 13.2727L17.8182 13.2727M17.8182 13.2727C17.8182 14.5279 16.8006 15.5455 15.5455 15.5455C14.2903 15.5455 13.2727 14.5279 13.2727 13.2727M17.8182 13.2727C17.8182 12.0175 16.8006 11 15.5455 11C14.2903 11 13.2727 12.0175 13.2727 13.2727M13.2727 13.2727L1 13.2727M21 3.27266L10.5455 3.27275M10.5455 3.27275C10.5455 4.52794 9.52792 5.54546 8.27273 5.54546C7.01753 5.54546 6 4.52794 6 3.27275M10.5455 3.27275C10.5455 2.01756 9.52792 1 8.27273 1C7.01753 1 6 2.01756 6 3.27275M6 3.27275L1 3.27266" stroke="#09402C" stroke-width="2" stroke-linecap="round" stroke-linejoin="round"/>
</svg>
