<svg width="24" height="24" viewBox="0 0 24 24" fill="none" xmlns="http://www.w3.org/2000/svg">
<path d="M14.4284 12.6295L17.6859 15.1631C17.8969 15.3741 18.183 15.4926 18.4814 15.4926C18.7797 15.4926 19.0659 15.3741 19.2769 15.1631C19.4879 14.9522 19.6064 14.666 19.6064 14.3676C19.6064 14.0693 19.4879 13.7831 19.2769 13.5721L15.5646 8.79917C15.3906 8.6248 15.184 8.48652 14.9565 8.39228C14.7289 8.29803 14.485 8.24968 14.2387 8.25H9.73874C9.49246 8.24968 9.24855 8.29803 9.02102 8.39228C8.79349 8.48652 8.58683 8.6248 8.41291 8.79917L4.7006 13.5721C4.59613 13.6766 4.51327 13.8006 4.45673 13.9371C4.40019 14.0736 4.37109 14.2199 4.37109 14.3676C4.37109 14.5154 4.40019 14.6617 4.45673 14.7982C4.51327 14.9347 4.59613 15.0587 4.7006 15.1631C4.80506 15.2676 4.92908 15.3505 5.06558 15.407C5.20207 15.4635 5.34836 15.4926 5.49609 15.4926C5.64383 15.4926 5.79012 15.4635 5.92661 15.407C6.0631 15.3505 6.18712 15.2676 6.29159 15.1631L9.54908 12.6295L6.94906 20.8415C6.82296 21.1119 6.80945 21.4213 6.9115 21.7017C7.01355 21.9821 7.22279 22.2104 7.49321 22.3365C7.76362 22.4626 8.07305 22.4761 8.35343 22.3741C8.6338 22.272 8.86215 22.0628 8.98825 21.7924L11.9887 17.0701L14.9892 21.7924C15.1157 22.0621 15.3441 22.2707 15.6242 22.3724C15.9043 22.474 16.2132 22.4603 16.4833 22.3344C16.7533 22.2085 16.9624 21.9806 17.0646 21.7007C17.1668 21.4208 17.1538 21.1118 17.0284 20.8415L14.4284 12.6295Z" stroke="#9E9E9E" stroke-width="1.5" stroke-linecap="round" stroke-linejoin="round"/>
<path d="M11.9887 6.75C13.4385 6.75 14.6137 5.57475 14.6137 4.125C14.6137 2.67525 13.4385 1.5 11.9887 1.5C10.539 1.5 9.36374 2.67525 9.36374 4.125C9.36374 5.57475 10.539 6.75 11.9887 6.75Z" stroke="#9E9E9E" stroke-width="1.5" stroke-linecap="round" stroke-linejoin="round"/>
</svg>
