<svg width="16" height="18" viewBox="0 0 16 18" fill="none" xmlns="http://www.w3.org/2000/svg">
<path d="M10.5158 7.21363L7.54703 2.07161C7.35002 1.73102 7.02583 1.48259 6.64573 1.38091C6.26563 1.27924 5.86071 1.33263 5.51996 1.52937C5.17921 1.7261 4.93051 2.05007 4.82851 2.43009C4.72652 2.8101 4.77957 3.21507 4.97602 3.55598L6.90571 6.8983L4.38227 2.52758C4.28489 2.35859 4.15517 2.21045 4.00051 2.09162C3.84586 1.9728 3.6693 1.88561 3.48093 1.83506C3.29256 1.7845 3.09607 1.77156 2.9027 1.79698C2.70933 1.82239 2.52286 1.88567 2.35396 1.98319C2.18505 2.0807 2.03702 2.21055 1.91832 2.36531C1.79962 2.52006 1.71259 2.6967 1.66219 2.88511C1.61179 3.07352 1.59901 3.27001 1.62459 3.46337C1.65017 3.65672 1.7136 3.84313 1.81126 4.01195L4.63157 8.89688L3.29563 6.58297C3.09861 6.24238 2.77443 5.99395 2.39433 5.89227C2.01423 5.7906 1.60931 5.84399 1.26856 6.04072C0.927807 6.23746 0.679106 6.56143 0.57711 6.94145C0.475115 7.32146 0.528172 7.72643 0.72462 8.06734L3.54493 12.9523C3.9347 13.6277 4.45371 14.2198 5.07231 14.6946C5.69092 15.1694 6.397 15.5178 7.15024 15.7197C7.90348 15.9216 8.68912 15.9732 9.46229 15.8714C10.2355 15.7697 10.981 15.5166 11.6564 15.1267C12.3317 14.7368 12.9237 14.2176 13.3984 13.5989C13.8731 12.9802 14.2212 12.274 14.423 11.5208C14.6247 10.7675 14.6761 9.98183 14.5742 9.20868C14.4723 8.43553 14.2191 7.69004 13.829 7.01477L12.3446 4.44375C12.2472 4.27477 12.1175 4.12663 11.9629 4.0078C11.8082 3.88897 11.6316 3.80179 11.4433 3.75123C11.2549 3.70067 11.0584 3.68773 10.865 3.71315C10.6717 3.73857 10.4852 3.80184 10.3163 3.89936C10.1474 3.99688 9.99936 4.12673 9.88066 4.28148C9.76196 4.43624 9.67493 4.61287 9.62453 4.80128C9.57413 4.98969 9.56135 5.18619 9.58693 5.37954C9.61251 5.57289 9.67594 5.75931 9.7736 5.92813L10.5158 7.21363ZM10.5158 7.21363C9.83391 7.60731 9.33635 8.25575 9.13257 9.01628C8.92878 9.77681 9.03547 10.5871 9.42915 11.269M4.01866 16.8127C3.01229 16.1144 2.17339 15.2016 1.56246 14.1399M11.0625 1.30078C11.7399 1.30069 12.4054 1.47902 12.9921 1.81783C13.5787 2.15663 14.0657 2.64397 14.4042 3.23079" stroke="#04BF55" stroke-linecap="round" stroke-linejoin="round"/>
</svg>
