<svg width="44" height="44" viewBox="0 0 44 44" fill="none" xmlns="http://www.w3.org/2000/svg">
<path d="M14.284 41.8868L2.11264 29.7155M23.2523 8.35052L35.6495 20.7477M13.6636 42H3.77103C3.30132 42 2.85085 41.8134 2.51872 41.4813C2.18659 41.1491 2 40.6987 2 40.229V30.3364C2 30.1038 2.04581 29.8735 2.13481 29.6587C2.22381 29.4438 2.35427 29.2486 2.51872 29.0841L29.0841 2.51872C29.4162 2.18659 29.8667 2 30.3364 2C30.8061 2 31.2566 2.18659 31.5887 2.51872L41.4813 12.4113C41.8134 12.7434 42 13.1939 42 13.6636C42 14.1333 41.8134 14.5838 41.4813 14.9159L14.9159 41.4813C14.7514 41.6457 14.5562 41.7762 14.3413 41.8652C14.1265 41.9542 13.8962 42 13.6636 42Z" stroke="#04BF55" stroke-width="4" stroke-linecap="round" stroke-linejoin="round"/>
</svg>
