<svg width="194" height="94" viewBox="0 0 194 94" fill="none" xmlns="http://www.w3.org/2000/svg">
<mask id="path-1-inside-1_161_33" fill="white">
<path d="M85.3696 0.307702C84.0151 0.704728 82.0659 2.8553 81.6364 4.47649C81.0747 6.46163 81.2069 9.20774 81.9337 10.8289C82.9579 13.0788 84.2794 14.5014 88.2109 17.6446L91.845 20.523V27.9342C91.845 32.0038 91.9111 35.3454 91.9771 35.3454C92.0432 35.3454 92.9683 34.9484 94.0255 34.4852C95.1157 33.9889 97.2301 33.1948 98.7829 32.6655L101.591 31.7391V26.8424C101.558 22.2104 101.525 21.8465 100.699 20.2584C99.5097 18.0085 96.5363 15.3286 93.0013 13.3434C88.2769 10.6635 85.3035 7.4542 85.7991 5.53523C86.2286 3.88095 89.3011 4.50958 91.812 6.7594L93.4969 8.28134V6.39546C93.4969 5.36981 93.3317 4.21181 93.1335 3.81478C92.3406 2.29284 90.6887 0.903245 89.0698 0.440046C87.2528 -0.122412 86.8563 -0.122412 85.3696 0.307702Z"/>
<path d="M104.069 8.21499C104.069 8.38042 104.267 8.54584 104.531 8.54584C105.588 8.54584 108.364 11.5897 109.586 14.1042C110.808 16.5526 110.841 16.718 110.841 20.2913C110.841 23.7652 110.775 24.063 109.751 26.1474C107.934 29.853 105.853 31.4411 98.2871 34.8489C89.3669 38.8854 85.931 43.3519 85.072 51.9542C84.8408 54.4026 85.3363 55.1635 85.7328 52.9137C86.2944 49.6051 88.9044 45.9326 90.7215 45.9326C91.1509 45.9326 91.5474 45.9657 91.5474 45.9988C91.5804 46.065 91.7126 53.3107 91.8117 62.1446C92.043 77.7941 92.043 78.2242 92.7698 79.9778C93.7609 82.3268 95.3467 84.6098 96.3379 85.0399C97.5272 85.6023 98.5514 84.6759 100.005 81.7644L101.26 79.2168L101.459 42.0616L100.6 41.6977C100.137 41.4661 99.5425 41.3006 99.2782 41.3006C98.221 41.3006 98.8818 40.7382 100.534 40.2088C106.546 38.2898 111.667 32.6322 111.667 27.9009C111.667 26.2467 112.031 25.8496 112.824 26.6106C113.187 26.9745 113.253 27.2723 112.989 27.537C112.758 27.8348 112.791 30.8456 113.055 37.0326C113.947 58.836 111.7 77.0662 107.472 81.9629L106.315 83.3525L107.24 83.1209C113.98 81.4997 119.233 73.0298 121.413 60.1925C121.942 57.0825 122.603 46.9252 122.338 45.8995C122.239 45.6018 122.305 45.2709 122.471 45.1717C122.636 45.0724 124.915 50.9616 127.525 58.2405C130.168 65.5193 132.382 71.5078 132.481 71.574C132.58 71.6402 134.794 66.148 137.404 59.3985C143.119 44.6092 143.053 44.8077 143.284 45.0724C143.383 45.1717 143.813 50.0352 144.242 55.8914C144.672 61.7476 145.068 66.5781 145.134 66.6442C145.201 66.7104 147.051 65.9825 149.231 64.99C151.412 63.9974 153.559 63.071 154.055 62.9717C154.781 62.7732 154.881 62.6078 154.748 61.7145C154.682 61.1189 154.22 56.9171 153.79 52.3843C152.171 36.404 149.76 18.6039 148.669 14.5013C148.141 12.5823 147.744 12.5492 146.159 14.3027C143.681 17.0158 138.23 28.8604 134.43 39.7456C134.001 40.9698 133.505 41.9293 133.373 41.8631C133.208 41.83 132.481 40.275 131.787 38.4884C129.739 33.2608 126.039 26.0812 123.131 21.6808C120.059 17.0158 114.872 11.5566 111.965 9.93545C109.189 8.34733 104.069 7.25551 104.069 8.21499Z"/>
<path d="M76.1517 14.5673C73.5087 20.4234 68.3549 35.0142 64.8859 46.6604C64.1921 49.0094 63.4983 50.8953 63.3662 50.8953C62.8376 50.8953 61.417 47.2559 58.4436 38.1573C53.2897 22.6071 49.7547 17.0818 43.8079 15.3282C42.2221 14.832 38.621 14.6334 38.2576 14.9974C38.1585 15.0966 39.5461 16.6517 41.3301 18.4383C44.1052 21.1513 44.6008 21.813 44.6008 22.7063C44.6008 23.9305 42.0239 41.7968 39.48 58.3396C37.1673 73.0958 36.9691 74.3861 36.6718 74.3861C36.5396 74.3861 36.3414 73.3936 36.2093 72.1363C35.8789 68.563 34.7886 64.5597 33.2028 61.218C30.7911 56.1228 27.8177 52.5827 22.1022 47.9838C17.9064 44.6421 14.3053 41.0358 13.5785 39.5139C12.6534 37.628 12.6204 34.7495 13.5454 33.5915C14.9991 31.7387 18.0716 31.6726 20.5494 33.4261C21.3423 33.9885 24.3157 36.8339 27.223 39.7785L32.443 45.1053L32.2117 36.8339L32.0135 28.5625L30.2955 26.9744C27.4543 24.3275 23.3246 21.7799 20.219 20.6881C17.7082 19.8279 17.0474 19.7286 14.3714 19.861C11.7284 19.9602 11.0346 20.1257 9.05231 21.1182C6.01285 22.6071 3.40288 25.287 1.75099 28.5956C0.56164 31.077 0.495565 31.3086 0.495565 34.4848C0.528602 43.0871 4.39401 48.7117 19.4261 62.1114C22.6308 64.9567 23.4898 66.4456 23.5228 68.9932C23.5558 71.1106 22.8951 72.2356 21.111 73.1289C17.0805 75.2133 12.2239 71.8716 3.17161 60.821C1.75099 59.1006 0.462527 57.5455 0.297339 57.347C0.132151 57.1816 0 60.7548 0 65.8169V74.5846L2.11441 77.2315C4.75742 80.5401 7.66473 82.9553 10.9685 84.6096C17.6751 88.0174 23.721 86.8263 30.0312 80.8378L32.9385 78.0586L33.9957 80.8378C35.2512 84.1464 38.9514 91.7561 39.8764 92.881L40.5041 93.642L41.5944 91.4252C43.9401 86.5616 45.8232 79.2166 46.9134 70.4158C48.301 59.4314 50.019 50.4321 50.6467 50.6637C50.9771 50.763 57.5516 67.9675 61.1857 78.2571C61.7804 79.9445 62.342 81.3341 62.4411 81.3341C62.5402 81.3341 64.919 74.4192 67.6941 65.9493C70.5023 57.5124 72.881 50.6637 73.0132 50.7299C73.3436 50.9284 73.8722 55.428 74.4999 63.137C75.1276 70.846 75.524 73.7906 76.35 76.9668C77.6715 82.2605 80.1493 85.6352 83.4861 86.7602C85.2701 87.3888 89.565 87.455 91.7125 86.9256L93.1661 86.5616L91.4151 85.3044C88.6069 83.2862 87.4176 81.1356 86.3604 76.2058C86.0961 74.9155 84.8407 65.85 83.5522 56.0236C79.5877 25.287 77.8036 12.2513 77.5063 11.9535C77.4402 11.8873 76.8455 13.0784 76.1517 14.5673Z"/>
<path d="M171.036 23.4345C161.521 52.6822 158.812 61.1852 158.944 61.2844C159.01 61.3506 160.431 61.119 162.05 60.7882C163.702 60.4573 165.552 60.1595 166.18 60.1595C166.807 60.1595 167.534 60.0272 167.765 59.8618C168.03 59.7294 169.318 56.1231 170.673 51.855C173.58 42.7234 173.415 43.1535 173.646 43.352C173.844 43.5505 178.404 60.1595 178.404 60.722C178.404 61.0528 177.644 61.1521 175.661 61.1521C170.177 61.1521 162.711 62.4424 156.5 64.4938C146.357 67.8023 138.032 73.4269 132.713 80.5403C130.895 82.9555 127.856 88.1169 127.856 88.7455C127.856 88.8779 129.045 88.0177 130.499 86.8266C140.344 78.7868 152.899 73.1622 165.948 70.9124C170.739 70.1183 178.007 69.622 178.569 70.0852C179.064 70.4823 181.245 76.9009 182.864 82.6578C183.359 84.3782 183.855 85.9002 183.987 86.0325C184.582 86.6942 194.196 79.7462 193.997 78.8198C193.931 78.4228 175.1 14.4352 174.637 13.0125C174.604 12.814 172.985 17.5121 171.036 23.4345Z"/>
</mask>
<path d="M85.3696 0.307702C84.0151 0.704728 82.0659 2.8553 81.6364 4.47649C81.0747 6.46163 81.2069 9.20774 81.9337 10.8289C82.9579 13.0788 84.2794 14.5014 88.2109 17.6446L91.845 20.523V27.9342C91.845 32.0038 91.9111 35.3454 91.9771 35.3454C92.0432 35.3454 92.9683 34.9484 94.0255 34.4852C95.1157 33.9889 97.2301 33.1948 98.7829 32.6655L101.591 31.7391V26.8424C101.558 22.2104 101.525 21.8465 100.699 20.2584C99.5097 18.0085 96.5363 15.3286 93.0013 13.3434C88.2769 10.6635 85.3035 7.4542 85.7991 5.53523C86.2286 3.88095 89.3011 4.50958 91.812 6.7594L93.4969 8.28134V6.39546C93.4969 5.36981 93.3317 4.21181 93.1335 3.81478C92.3406 2.29284 90.6887 0.903245 89.0698 0.440046C87.2528 -0.122412 86.8563 -0.122412 85.3696 0.307702Z" fill="#04BF55"/>
<path d="M104.069 8.21499C104.069 8.38042 104.267 8.54584 104.531 8.54584C105.588 8.54584 108.364 11.5897 109.586 14.1042C110.808 16.5526 110.841 16.718 110.841 20.2913C110.841 23.7652 110.775 24.063 109.751 26.1474C107.934 29.853 105.853 31.4411 98.2871 34.8489C89.3669 38.8854 85.931 43.3519 85.072 51.9542C84.8408 54.4026 85.3363 55.1635 85.7328 52.9137C86.2944 49.6051 88.9044 45.9326 90.7215 45.9326C91.1509 45.9326 91.5474 45.9657 91.5474 45.9988C91.5804 46.065 91.7126 53.3107 91.8117 62.1446C92.043 77.7941 92.043 78.2242 92.7698 79.9778C93.7609 82.3268 95.3467 84.6098 96.3379 85.0399C97.5272 85.6023 98.5514 84.6759 100.005 81.7644L101.26 79.2168L101.459 42.0616L100.6 41.6977C100.137 41.4661 99.5425 41.3006 99.2782 41.3006C98.221 41.3006 98.8818 40.7382 100.534 40.2088C106.546 38.2898 111.667 32.6322 111.667 27.9009C111.667 26.2467 112.031 25.8496 112.824 26.6106C113.187 26.9745 113.253 27.2723 112.989 27.537C112.758 27.8348 112.791 30.8456 113.055 37.0326C113.947 58.836 111.7 77.0662 107.472 81.9629L106.315 83.3525L107.24 83.1209C113.98 81.4997 119.233 73.0298 121.413 60.1925C121.942 57.0825 122.603 46.9252 122.338 45.8995C122.239 45.6018 122.305 45.2709 122.471 45.1717C122.636 45.0724 124.915 50.9616 127.525 58.2405C130.168 65.5193 132.382 71.5078 132.481 71.574C132.58 71.6402 134.794 66.148 137.404 59.3985C143.119 44.6092 143.053 44.8077 143.284 45.0724C143.383 45.1717 143.813 50.0352 144.242 55.8914C144.672 61.7476 145.068 66.5781 145.134 66.6442C145.201 66.7104 147.051 65.9825 149.231 64.99C151.412 63.9974 153.559 63.071 154.055 62.9717C154.781 62.7732 154.881 62.6078 154.748 61.7145C154.682 61.1189 154.22 56.9171 153.79 52.3843C152.171 36.404 149.76 18.6039 148.669 14.5013C148.141 12.5823 147.744 12.5492 146.159 14.3027C143.681 17.0158 138.23 28.8604 134.43 39.7456C134.001 40.9698 133.505 41.9293 133.373 41.8631C133.208 41.83 132.481 40.275 131.787 38.4884C129.739 33.2608 126.039 26.0812 123.131 21.6808C120.059 17.0158 114.872 11.5566 111.965 9.93545C109.189 8.34733 104.069 7.25551 104.069 8.21499Z" fill="#04BF55"/>
<path d="M76.1517 14.5673C73.5087 20.4234 68.3549 35.0142 64.8859 46.6604C64.1921 49.0094 63.4983 50.8953 63.3662 50.8953C62.8376 50.8953 61.417 47.2559 58.4436 38.1573C53.2897 22.6071 49.7547 17.0818 43.8079 15.3282C42.2221 14.832 38.621 14.6334 38.2576 14.9974C38.1585 15.0966 39.5461 16.6517 41.3301 18.4383C44.1052 21.1513 44.6008 21.813 44.6008 22.7063C44.6008 23.9305 42.0239 41.7968 39.48 58.3396C37.1673 73.0958 36.9691 74.3861 36.6718 74.3861C36.5396 74.3861 36.3414 73.3936 36.2093 72.1363C35.8789 68.563 34.7886 64.5597 33.2028 61.218C30.7911 56.1228 27.8177 52.5827 22.1022 47.9838C17.9064 44.6421 14.3053 41.0358 13.5785 39.5139C12.6534 37.628 12.6204 34.7495 13.5454 33.5915C14.9991 31.7387 18.0716 31.6726 20.5494 33.4261C21.3423 33.9885 24.3157 36.8339 27.223 39.7785L32.443 45.1053L32.2117 36.8339L32.0135 28.5625L30.2955 26.9744C27.4543 24.3275 23.3246 21.7799 20.219 20.6881C17.7082 19.8279 17.0474 19.7286 14.3714 19.861C11.7284 19.9602 11.0346 20.1257 9.05231 21.1182C6.01285 22.6071 3.40288 25.287 1.75099 28.5956C0.56164 31.077 0.495565 31.3086 0.495565 34.4848C0.528602 43.0871 4.39401 48.7117 19.4261 62.1114C22.6308 64.9567 23.4898 66.4456 23.5228 68.9932C23.5558 71.1106 22.8951 72.2356 21.111 73.1289C17.0805 75.2133 12.2239 71.8716 3.17161 60.821C1.75099 59.1006 0.462527 57.5455 0.297339 57.347C0.132151 57.1816 0 60.7548 0 65.8169V74.5846L2.11441 77.2315C4.75742 80.5401 7.66473 82.9553 10.9685 84.6096C17.6751 88.0174 23.721 86.8263 30.0312 80.8378L32.9385 78.0586L33.9957 80.8378C35.2512 84.1464 38.9514 91.7561 39.8764 92.881L40.5041 93.642L41.5944 91.4252C43.9401 86.5616 45.8232 79.2166 46.9134 70.4158C48.301 59.4314 50.019 50.4321 50.6467 50.6637C50.9771 50.763 57.5516 67.9675 61.1857 78.2571C61.7804 79.9445 62.342 81.3341 62.4411 81.3341C62.5402 81.3341 64.919 74.4192 67.6941 65.9493C70.5023 57.5124 72.881 50.6637 73.0132 50.7299C73.3436 50.9284 73.8722 55.428 74.4999 63.137C75.1276 70.846 75.524 73.7906 76.35 76.9668C77.6715 82.2605 80.1493 85.6352 83.4861 86.7602C85.2701 87.3888 89.565 87.455 91.7125 86.9256L93.1661 86.5616L91.4151 85.3044C88.6069 83.2862 87.4176 81.1356 86.3604 76.2058C86.0961 74.9155 84.8407 65.85 83.5522 56.0236C79.5877 25.287 77.8036 12.2513 77.5063 11.9535C77.4402 11.8873 76.8455 13.0784 76.1517 14.5673Z" fill="#04BF55"/>
<path d="M171.036 23.4345C161.521 52.6822 158.812 61.1852 158.944 61.2844C159.01 61.3506 160.431 61.119 162.05 60.7882C163.702 60.4573 165.552 60.1595 166.18 60.1595C166.807 60.1595 167.534 60.0272 167.765 59.8618C168.03 59.7294 169.318 56.1231 170.673 51.855C173.58 42.7234 173.415 43.1535 173.646 43.352C173.844 43.5505 178.404 60.1595 178.404 60.722C178.404 61.0528 177.644 61.1521 175.661 61.1521C170.177 61.1521 162.711 62.4424 156.5 64.4938C146.357 67.8023 138.032 73.4269 132.713 80.5403C130.895 82.9555 127.856 88.1169 127.856 88.7455C127.856 88.8779 129.045 88.0177 130.499 86.8266C140.344 78.7868 152.899 73.1622 165.948 70.9124C170.739 70.1183 178.007 69.622 178.569 70.0852C179.064 70.4823 181.245 76.9009 182.864 82.6578C183.359 84.3782 183.855 85.9002 183.987 86.0325C184.582 86.6942 194.196 79.7462 193.997 78.8198C193.931 78.4228 175.1 14.4352 174.637 13.0125C174.604 12.814 172.985 17.5121 171.036 23.4345Z" fill="#04BF55"/>
<path d="M85.3696 0.307702C84.0151 0.704728 82.0659 2.8553 81.6364 4.47649C81.0747 6.46163 81.2069 9.20774 81.9337 10.8289C82.9579 13.0788 84.2794 14.5014 88.2109 17.6446L91.845 20.523V27.9342C91.845 32.0038 91.9111 35.3454 91.9771 35.3454C92.0432 35.3454 92.9683 34.9484 94.0255 34.4852C95.1157 33.9889 97.2301 33.1948 98.7829 32.6655L101.591 31.7391V26.8424C101.558 22.2104 101.525 21.8465 100.699 20.2584C99.5097 18.0085 96.5363 15.3286 93.0013 13.3434C88.2769 10.6635 85.3035 7.4542 85.7991 5.53523C86.2286 3.88095 89.3011 4.50958 91.812 6.7594L93.4969 8.28134V6.39546C93.4969 5.36981 93.3317 4.21181 93.1335 3.81478C92.3406 2.29284 90.6887 0.903245 89.0698 0.440046C87.2528 -0.122412 86.8563 -0.122412 85.3696 0.307702Z" stroke="#04BF55" stroke-width="20" mask="url(#path-1-inside-1_161_33)"/>
<path d="M104.069 8.21499C104.069 8.38042 104.267 8.54584 104.531 8.54584C105.588 8.54584 108.364 11.5897 109.586 14.1042C110.808 16.5526 110.841 16.718 110.841 20.2913C110.841 23.7652 110.775 24.063 109.751 26.1474C107.934 29.853 105.853 31.4411 98.2871 34.8489C89.3669 38.8854 85.931 43.3519 85.072 51.9542C84.8408 54.4026 85.3363 55.1635 85.7328 52.9137C86.2944 49.6051 88.9044 45.9326 90.7215 45.9326C91.1509 45.9326 91.5474 45.9657 91.5474 45.9988C91.5804 46.065 91.7126 53.3107 91.8117 62.1446C92.043 77.7941 92.043 78.2242 92.7698 79.9778C93.7609 82.3268 95.3467 84.6098 96.3379 85.0399C97.5272 85.6023 98.5514 84.6759 100.005 81.7644L101.26 79.2168L101.459 42.0616L100.6 41.6977C100.137 41.4661 99.5425 41.3006 99.2782 41.3006C98.221 41.3006 98.8818 40.7382 100.534 40.2088C106.546 38.2898 111.667 32.6322 111.667 27.9009C111.667 26.2467 112.031 25.8496 112.824 26.6106C113.187 26.9745 113.253 27.2723 112.989 27.537C112.758 27.8348 112.791 30.8456 113.055 37.0326C113.947 58.836 111.7 77.0662 107.472 81.9629L106.315 83.3525L107.24 83.1209C113.98 81.4997 119.233 73.0298 121.413 60.1925C121.942 57.0825 122.603 46.9252 122.338 45.8995C122.239 45.6018 122.305 45.2709 122.471 45.1717C122.636 45.0724 124.915 50.9616 127.525 58.2405C130.168 65.5193 132.382 71.5078 132.481 71.574C132.58 71.6402 134.794 66.148 137.404 59.3985C143.119 44.6092 143.053 44.8077 143.284 45.0724C143.383 45.1717 143.813 50.0352 144.242 55.8914C144.672 61.7476 145.068 66.5781 145.134 66.6442C145.201 66.7104 147.051 65.9825 149.231 64.99C151.412 63.9974 153.559 63.071 154.055 62.9717C154.781 62.7732 154.881 62.6078 154.748 61.7145C154.682 61.1189 154.22 56.9171 153.79 52.3843C152.171 36.404 149.76 18.6039 148.669 14.5013C148.141 12.5823 147.744 12.5492 146.159 14.3027C143.681 17.0158 138.23 28.8604 134.43 39.7456C134.001 40.9698 133.505 41.9293 133.373 41.8631C133.208 41.83 132.481 40.275 131.787 38.4884C129.739 33.2608 126.039 26.0812 123.131 21.6808C120.059 17.0158 114.872 11.5566 111.965 9.93545C109.189 8.34733 104.069 7.25551 104.069 8.21499Z" stroke="#04BF55" stroke-width="20" mask="url(#path-1-inside-1_161_33)"/>
<path d="M76.1517 14.5673C73.5087 20.4234 68.3549 35.0142 64.8859 46.6604C64.1921 49.0094 63.4983 50.8953 63.3662 50.8953C62.8376 50.8953 61.417 47.2559 58.4436 38.1573C53.2897 22.6071 49.7547 17.0818 43.8079 15.3282C42.2221 14.832 38.621 14.6334 38.2576 14.9974C38.1585 15.0966 39.5461 16.6517 41.3301 18.4383C44.1052 21.1513 44.6008 21.813 44.6008 22.7063C44.6008 23.9305 42.0239 41.7968 39.48 58.3396C37.1673 73.0958 36.9691 74.3861 36.6718 74.3861C36.5396 74.3861 36.3414 73.3936 36.2093 72.1363C35.8789 68.563 34.7886 64.5597 33.2028 61.218C30.7911 56.1228 27.8177 52.5827 22.1022 47.9838C17.9064 44.6421 14.3053 41.0358 13.5785 39.5139C12.6534 37.628 12.6204 34.7495 13.5454 33.5915C14.9991 31.7387 18.0716 31.6726 20.5494 33.4261C21.3423 33.9885 24.3157 36.8339 27.223 39.7785L32.443 45.1053L32.2117 36.8339L32.0135 28.5625L30.2955 26.9744C27.4543 24.3275 23.3246 21.7799 20.219 20.6881C17.7082 19.8279 17.0474 19.7286 14.3714 19.861C11.7284 19.9602 11.0346 20.1257 9.05231 21.1182C6.01285 22.6071 3.40288 25.287 1.75099 28.5956C0.56164 31.077 0.495565 31.3086 0.495565 34.4848C0.528602 43.0871 4.39401 48.7117 19.4261 62.1114C22.6308 64.9567 23.4898 66.4456 23.5228 68.9932C23.5558 71.1106 22.8951 72.2356 21.111 73.1289C17.0805 75.2133 12.2239 71.8716 3.17161 60.821C1.75099 59.1006 0.462527 57.5455 0.297339 57.347C0.132151 57.1816 0 60.7548 0 65.8169V74.5846L2.11441 77.2315C4.75742 80.5401 7.66473 82.9553 10.9685 84.6096C17.6751 88.0174 23.721 86.8263 30.0312 80.8378L32.9385 78.0586L33.9957 80.8378C35.2512 84.1464 38.9514 91.7561 39.8764 92.881L40.5041 93.642L41.5944 91.4252C43.9401 86.5616 45.8232 79.2166 46.9134 70.4158C48.301 59.4314 50.019 50.4321 50.6467 50.6637C50.9771 50.763 57.5516 67.9675 61.1857 78.2571C61.7804 79.9445 62.342 81.3341 62.4411 81.3341C62.5402 81.3341 64.919 74.4192 67.6941 65.9493C70.5023 57.5124 72.881 50.6637 73.0132 50.7299C73.3436 50.9284 73.8722 55.428 74.4999 63.137C75.1276 70.846 75.524 73.7906 76.35 76.9668C77.6715 82.2605 80.1493 85.6352 83.4861 86.7602C85.2701 87.3888 89.565 87.455 91.7125 86.9256L93.1661 86.5616L91.4151 85.3044C88.6069 83.2862 87.4176 81.1356 86.3604 76.2058C86.0961 74.9155 84.8407 65.85 83.5522 56.0236C79.5877 25.287 77.8036 12.2513 77.5063 11.9535C77.4402 11.8873 76.8455 13.0784 76.1517 14.5673Z" stroke="#04BF55" stroke-width="20" mask="url(#path-1-inside-1_161_33)"/>
<path d="M171.036 23.4345C161.521 52.6822 158.812 61.1852 158.944 61.2844C159.01 61.3506 160.431 61.119 162.05 60.7882C163.702 60.4573 165.552 60.1595 166.18 60.1595C166.807 60.1595 167.534 60.0272 167.765 59.8618C168.03 59.7294 169.318 56.1231 170.673 51.855C173.58 42.7234 173.415 43.1535 173.646 43.352C173.844 43.5505 178.404 60.1595 178.404 60.722C178.404 61.0528 177.644 61.1521 175.661 61.1521C170.177 61.1521 162.711 62.4424 156.5 64.4938C146.357 67.8023 138.032 73.4269 132.713 80.5403C130.895 82.9555 127.856 88.1169 127.856 88.7455C127.856 88.8779 129.045 88.0177 130.499 86.8266C140.344 78.7868 152.899 73.1622 165.948 70.9124C170.739 70.1183 178.007 69.622 178.569 70.0852C179.064 70.4823 181.245 76.9009 182.864 82.6578C183.359 84.3782 183.855 85.9002 183.987 86.0325C184.582 86.6942 194.196 79.7462 193.997 78.8198C193.931 78.4228 175.1 14.4352 174.637 13.0125C174.604 12.814 172.985 17.5121 171.036 23.4345Z" stroke="#04BF55" stroke-width="20" mask="url(#path-1-inside-1_161_33)"/>
</svg>
